<?xml version="1.0" encoding="UTF-8" standalone="no"?>
<svg
   width="720pt"
   height="720pt"
   viewBox="0 0 720 720"
   version="1.1"
   id="svg132"
   sodipodi:docname="chart.svg"
   inkscape:version="1.2.1 (9c6d41e410, 2022-07-14)"
   xmlns:inkscape="http://www.inkscape.org/namespaces/inkscape"
   xmlns:sodipodi="http://sodipodi.sourceforge.net/DTD/sodipodi-0.dtd"
   xmlns:xlink="http://www.w3.org/1999/xlink"
   xmlns="http://www.w3.org/2000/svg"
   xmlns:svg="http://www.w3.org/2000/svg"
   xmlns:rdf="http://www.w3.org/1999/02/22-rdf-syntax-ns#"
   xmlns:cc="http://creativecommons.org/ns#"
   xmlns:dc="http://purl.org/dc/elements/1.1/">
  <sodipodi:namedview
     id="namedview134"
     pagecolor="#ffffff"
     bordercolor="#666666"
     borderopacity="1.0"
     inkscape:showpageshadow="2"
     inkscape:pageopacity="0.0"
     inkscape:pagecheckerboard="0"
     inkscape:deskcolor="#d1d1d1"
     inkscape:document-units="pt"
     showgrid="false"
     inkscape:zoom="0.98333333"
     inkscape:cx="130.67797"
     inkscape:cy="414.40678"
     inkscape:window-width="2548"
     inkscape:window-height="1400"
     inkscape:window-x="0"
     inkscape:window-y="0"
     inkscape:window-maximized="1"
     inkscape:current-layer="text_6" />
  <metadata
     id="metadata2">
    <rdf:RDF>
      <cc:Work>
        <dc:type
           rdf:resource="http://purl.org/dc/dcmitype/StillImage" />
        <dc:date>2022-02-14T13:38:43.293843</dc:date>
        <dc:format>image/svg+xml</dc:format>
        <dc:creator>
          <cc:Agent>
            <dc:title>Matplotlib v3.5.1, https://matplotlib.org/</dc:title>
          </cc:Agent>
        </dc:creator>
      </cc:Work>
    </rdf:RDF>
  </metadata>
  <defs
     id="defs6">
    <style
       type="text/css"
       id="style4">*{stroke-linejoin: round; stroke-linecap: butt}</style>
  </defs>
  <g
     id="figure_1">
    <g
       id="patch_1">
      <path
         d="M 0 720  L 720 720  L 720 0  L 0 0  L 0 720  z "
         style="fill: none"
         id="path8" />
    </g>
    <g
       id="axes_1">
      <g
         id="patch_2">
        <path
           d="M 137.886772 367.004498  C 137.886772 412.581138 151.205437 457.179514 176.198127 495.292445  C 201.190816 533.405376 236.784637 563.396739 278.584325 581.563085  C 320.384013 599.729431 366.595179 605.290909 411.51149 597.560766  C 456.4278 589.830623 498.121074 569.140701 531.442864 538.045872  C 564.764653 506.951043 588.284511 466.786155 599.098114 422.510924  C 609.911716 378.235694 607.554854 331.75078 592.318562 288.796323  C 577.082269 245.841865 549.620615 208.261824 513.32467 180.696729  C 477.028725 153.131635 433.456613 136.764809 387.988787 133.617292  L 371.83252 367.004498  L 137.886772 367.004498  z "
           style="fill: #94c8a4"
           id="path11" />
      </g>
      <g
         id="patch_3">
        <path
           d="M 373.766513 115.042226  C 316.949956 111.109091 260.607267 128.055601 215.38751 162.678777  C 170.167752 197.301953 139.111406 247.273806 128.088284 303.149396  L 357.610247 348.429433  L 373.766513 115.042226  z "
           style="fill: #ff9aa2"
           id="path14" />
      </g>
      <g
         id="patch_4">
        <path
           d="M 142.310557 321.724462  C 140.840336 329.176933 139.733953 336.696591 138.995343 344.256707  C 138.256733 351.816822 137.886771 359.408427 137.886772 367.004537  L 371.83252 367.004498  L 142.310557 321.724462  z "
           style="fill: #999999"
           id="path17" />
      </g>
      <g
         id="matplotlib.axis_1" />
      <g
         id="matplotlib.axis_2" />
      <g
         id="text_1">
        <!-- Java -->
        <g
           transform="translate(547.403898 562.048447)scale(0.25 -0.25)"
           id="g35">
          <defs
             id="defs25">
            <path
               id="DejaVuSans-4a"
               d="M 628 4666  L 1259 4666  L 1259 325  Q 1259 -519 939 -900  Q 619 -1281 -91 -1281  L -331 -1281  L -331 -750  L -134 -750  Q 284 -750 456 -515  Q 628 -281 628 325  L 628 4666  z "
               transform="scale(0.015625)" />
            <path
               id="DejaVuSans-61"
               d="M 2194 1759  Q 1497 1759 1228 1600  Q 959 1441 959 1056  Q 959 750 1161 570  Q 1363 391 1709 391  Q 2188 391 2477 730  Q 2766 1069 2766 1631  L 2766 1759  L 2194 1759  z M 3341 1997  L 3341 0  L 2766 0  L 2766 531  Q 2569 213 2275 61  Q 1981 -91 1556 -91  Q 1019 -91 701 211  Q 384 513 384 1019  Q 384 1609 779 1909  Q 1175 2209 1959 2209  L 2766 2209  L 2766 2266  Q 2766 2663 2505 2880  Q 2244 3097 1772 3097  Q 1472 3097 1187 3025  Q 903 2953 641 2809  L 641 3341  Q 956 3463 1253 3523  Q 1550 3584 1831 3584  Q 2591 3584 2966 3190  Q 3341 2797 3341 1997  z "
               transform="scale(0.015625)" />
            <path
               id="DejaVuSans-76"
               d="M 191 3500  L 800 3500  L 1894 563  L 2988 3500  L 3597 3500  L 2284 0  L 1503 0  L 191 3500  z "
               transform="scale(0.015625)" />
          </defs>
          <use
             xlink:href="#DejaVuSans-4a"
             id="use27" />
          <use
             xlink:href="#DejaVuSans-61"
             x="29.492188"
             id="use29" />
          <use
             xlink:href="#DejaVuSans-76"
             x="90.771484"
             id="use31" />
          <use
             xlink:href="#DejaVuSans-61"
             x="149.951172"
             id="use33" />
        </g>
      </g>
      <g
         id="text_3">
        <!-- Scala -->
        <g
           transform="translate(133.962111 151.002149)scale(0.25 -0.25)"
           id="g73">
          <defs
             id="defs61">
            <path
               id="DejaVuSans-53"
               d="M 3425 4513  L 3425 3897  Q 3066 4069 2747 4153  Q 2428 4238 2131 4238  Q 1616 4238 1336 4038  Q 1056 3838 1056 3469  Q 1056 3159 1242 3001  Q 1428 2844 1947 2747  L 2328 2669  Q 3034 2534 3370 2195  Q 3706 1856 3706 1288  Q 3706 609 3251 259  Q 2797 -91 1919 -91  Q 1588 -91 1214 -16  Q 841 59 441 206  L 441 856  Q 825 641 1194 531  Q 1563 422 1919 422  Q 2459 422 2753 634  Q 3047 847 3047 1241  Q 3047 1584 2836 1778  Q 2625 1972 2144 2069  L 1759 2144  Q 1053 2284 737 2584  Q 422 2884 422 3419  Q 422 4038 858 4394  Q 1294 4750 2059 4750  Q 2388 4750 2728 4690  Q 3069 4631 3425 4513  z "
               transform="scale(0.015625)" />
            <path
               id="DejaVuSans-63"
               d="M 3122 3366  L 3122 2828  Q 2878 2963 2633 3030  Q 2388 3097 2138 3097  Q 1578 3097 1268 2742  Q 959 2388 959 1747  Q 959 1106 1268 751  Q 1578 397 2138 397  Q 2388 397 2633 464  Q 2878 531 3122 666  L 3122 134  Q 2881 22 2623 -34  Q 2366 -91 2075 -91  Q 1284 -91 818 406  Q 353 903 353 1747  Q 353 2603 823 3093  Q 1294 3584 2113 3584  Q 2378 3584 2631 3529  Q 2884 3475 3122 3366  z "
               transform="scale(0.015625)" />
            <path
               id="DejaVuSans-6c"
               d="M 603 4863  L 1178 4863  L 1178 0  L 603 0  L 603 4863  z "
               transform="scale(0.015625)" />
          </defs>
          <use
             xlink:href="#DejaVuSans-53"
             id="use63" />
          <use
             xlink:href="#DejaVuSans-63"
             x="63.476562"
             id="use65" />
          <use
             xlink:href="#DejaVuSans-61"
             x="118.457031"
             id="use67" />
          <use
             xlink:href="#DejaVuSans-6c"
             x="179.736328"
             id="use69" />
          <use
             xlink:href="#DejaVuSans-61"
             x="207.519531"
             id="use71" />
        </g>
      </g>
      <g
         id="text_5">
        <!-- Others -->
        <g
           transform="translate(31.703813 348.880365)scale(0.25 -0.25)"
           id="g113">
          <defs
             id="defs99">
            <path
               id="DejaVuSans-4f"
               d="M 2522 4238  Q 1834 4238 1429 3725  Q 1025 3213 1025 2328  Q 1025 1447 1429 934  Q 1834 422 2522 422  Q 3209 422 3611 934  Q 4013 1447 4013 2328  Q 4013 3213 3611 3725  Q 3209 4238 2522 4238  z M 2522 4750  Q 3503 4750 4090 4092  Q 4678 3434 4678 2328  Q 4678 1225 4090 567  Q 3503 -91 2522 -91  Q 1538 -91 948 565  Q 359 1222 359 2328  Q 359 3434 948 4092  Q 1538 4750 2522 4750  z "
               transform="scale(0.015625)" />
            <path
               id="DejaVuSans-74"
               d="M 1172 4494  L 1172 3500  L 2356 3500  L 2356 3053  L 1172 3053  L 1172 1153  Q 1172 725 1289 603  Q 1406 481 1766 481  L 2356 481  L 2356 0  L 1766 0  Q 1100 0 847 248  Q 594 497 594 1153  L 594 3053  L 172 3053  L 172 3500  L 594 3500  L 594 4494  L 1172 4494  z "
               transform="scale(0.015625)" />
            <path
               id="DejaVuSans-68"
               d="M 3513 2113  L 3513 0  L 2938 0  L 2938 2094  Q 2938 2591 2744 2837  Q 2550 3084 2163 3084  Q 1697 3084 1428 2787  Q 1159 2491 1159 1978  L 1159 0  L 581 0  L 581 4863  L 1159 4863  L 1159 2956  Q 1366 3272 1645 3428  Q 1925 3584 2291 3584  Q 2894 3584 3203 3211  Q 3513 2838 3513 2113  z "
               transform="scale(0.015625)" />
            <path
               id="DejaVuSans-65"
               d="M 3597 1894  L 3597 1613  L 953 1613  Q 991 1019 1311 708  Q 1631 397 2203 397  Q 2534 397 2845 478  Q 3156 559 3463 722  L 3463 178  Q 3153 47 2828 -22  Q 2503 -91 2169 -91  Q 1331 -91 842 396  Q 353 884 353 1716  Q 353 2575 817 3079  Q 1281 3584 2069 3584  Q 2775 3584 3186 3129  Q 3597 2675 3597 1894  z M 3022 2063  Q 3016 2534 2758 2815  Q 2500 3097 2075 3097  Q 1594 3097 1305 2825  Q 1016 2553 972 2059  L 3022 2063  z "
               transform="scale(0.015625)" />
            <path
               id="DejaVuSans-72"
               d="M 2631 2963  Q 2534 3019 2420 3045  Q 2306 3072 2169 3072  Q 1681 3072 1420 2755  Q 1159 2438 1159 1844  L 1159 0  L 581 0  L 581 3500  L 1159 3500  L 1159 2956  Q 1341 3275 1631 3429  Q 1922 3584 2338 3584  Q 2397 3584 2469 3576  Q 2541 3569 2628 3553  L 2631 2963  z "
               transform="scale(0.015625)" />
            <path
               id="DejaVuSans-73"
               d="M 2834 3397  L 2834 2853  Q 2591 2978 2328 3040  Q 2066 3103 1784 3103  Q 1356 3103 1142 2972  Q 928 2841 928 2578  Q 928 2378 1081 2264  Q 1234 2150 1697 2047  L 1894 2003  Q 2506 1872 2764 1633  Q 3022 1394 3022 966  Q 3022 478 2636 193  Q 2250 -91 1575 -91  Q 1294 -91 989 -36  Q 684 19 347 128  L 347 722  Q 666 556 975 473  Q 1284 391 1588 391  Q 1994 391 2212 530  Q 2431 669 2431 922  Q 2431 1156 2273 1281  Q 2116 1406 1581 1522  L 1381 1569  Q 847 1681 609 1914  Q 372 2147 372 2553  Q 372 3047 722 3315  Q 1072 3584 1716 3584  Q 2034 3584 2315 3537  Q 2597 3491 2834 3397  z "
               transform="scale(0.015625)" />
          </defs>
          <use
             xlink:href="#DejaVuSans-4f"
             id="use101" />
          <use
             xlink:href="#DejaVuSans-74"
             x="78.710938"
             id="use103" />
          <use
             xlink:href="#DejaVuSans-68"
             x="117.919922"
             id="use105" />
          <use
             xlink:href="#DejaVuSans-65"
             x="181.298828"
             id="use107" />
          <use
             xlink:href="#DejaVuSans-72"
             x="242.822266"
             id="use109" />
          <use
             xlink:href="#DejaVuSans-73"
             x="283.935547"
             id="use111" />
        </g>
      </g>
      <g
         id="text_6"
         transform="translate(-10.5)">
        <!-- 3.1% -->
        <text
           xml:space="preserve"
           style="font-size:30px;line-height:1.25;font-family:sans-serif;letter-spacing:0px;stroke-width:0.75"
           x="260.4512"
           y="233.84268"
           id="text1013"><tspan
             sodipodi:role="line"
             id="tspan1011"
             style="stroke-width:0.75"
             x="260.4512"
             y="233.84268" /></text>
        <text
           xml:space="preserve"
           style="font-size:30px;line-height:1.25;font-family:sans-serif;letter-spacing:0px;stroke-width:0.75"
           x="250.04733"
           y="256.44992"
           id="text1017"><tspan
             sodipodi:role="line"
             id="tspan1015"
             style="stroke-width:0.75"
             x="250.04733"
             y="256.44992">22.3%</tspan></text>
        <text
           xml:space="preserve"
           style="font-size:30px;line-height:1.25;font-family:sans-serif;letter-spacing:0px;stroke-width:0.75"
           x="428.2955"
           y="460.12976"
           id="text1071"><tspan
             sodipodi:role="line"
             id="tspan1069"
             style="stroke-width:0.75"
             x="428.2955"
             y="460.12976">74.7%</tspan></text>
        <text
           xml:space="preserve"
           style="font-size:30px;line-height:1.25;font-family:sans-serif;letter-spacing:0px;stroke-width:0.75"
           x="188.79581"
           y="359.40411"
           id="text1103"><tspan
             sodipodi:role="line"
             id="tspan1101"
             style="stroke-width:0.75"
             x="188.79581"
             y="359.40411">3.0%</tspan></text>
      </g>
    </g>
  </g>
</svg>
