<svg version="1.1" viewBox="0.0 0.0 475.0 293.0" fill="none" stroke="none" stroke-linecap="square" stroke-miterlimit="10" width="475" height="293" xmlns:xlink="http://www.w3.org/1999/xlink" xmlns="http://www.w3.org/2000/svg"><path fill="#ffffff" d="M0 0L475.0 0L475.0 293.0L0 293.0L0 0Z" fill-rule="nonzero"/><path fill="#31848b" d="M171.79578 90.46466C171.93385 90.46405 172.07193 90.46375 172.21 90.46375L172.21 110.24125C172.07193 110.24125 171.93385 110.241554 171.79578 110.242165Z" fill-rule="nonzero"/><path fill="#46bdc6" d="M171.38156 44.318073C171.65771 44.316856 171.93385 44.31625 172.21 44.31625L172.21 90.46375C172.07193 90.46375 171.93385 90.46405 171.79578 90.46466Z" fill-rule="nonzero"/><path fill="#b34c01" d="M171.38158 90.46739C171.51965 90.46618 171.65771 90.46527 171.79578 90.46466L171.79578 110.242165C171.65771 110.24277 171.51965 110.24368 171.38158 110.244896Z" fill-rule="nonzero"/><path fill="#ff6d01" d="M170.55316 44.323536C170.82928 44.32111 171.10542 44.319286 171.38156 44.318073L171.79578 90.46466C171.65771 90.46527 171.51965 90.46618 171.38158 90.46739Z" fill-rule="nonzero"/><path fill="#24763a" d="M170.5533 90.478325C170.82936 90.473465 171.10545 90.469826 171.38158 90.46739L171.38158 110.244896C171.10545 110.24732 170.82936 110.25097 170.5533 110.25582Z" fill-rule="nonzero"/><path fill="#34a853" d="M168.89659 44.345398C169.44872 44.335682 170.00092 44.328396 170.55316 44.323536L171.38158 90.46739C171.10545 90.469826 170.82936 90.473465 170.5533 90.478325Z" fill-rule="nonzero"/><path fill="#b08403" d="M159.45026 91.33637C163.10992 90.830986 166.82426 90.543945 170.5533 90.478325L170.5533 110.25582C166.82426 110.32144 163.10992 110.60849 159.45026 111.11388Z" fill-rule="nonzero"/><path fill="#fbbc04" d="M146.6905 46.0615C154.00984 45.050728 161.43854 44.476635 168.89659 44.345398L170.5533 90.478325C166.82426 90.543945 163.10992 90.830986 159.45026 91.33637Z" fill-rule="nonzero"/><path fill="#a42f25" d="M40.67479 162.76265C40.464993 160.64119 40.36 158.51529 40.36 156.38875L40.36 136.61125C40.36 138.7378 40.464993 140.8637 40.67479 142.98514Z" fill-rule="nonzero"/><path fill="#a42f25" d="M106.285 136.61125C106.285 114.56821 128.55565 95.6028 159.45026 91.33637L159.45026 111.11388C128.55565 115.380295 106.285 134.3457 106.285 156.38875Z" fill-rule="nonzero"/><path fill="#ea4335" d="M40.67479 142.98514C36.08718 96.595665 81.517365 55.06165 146.6905 46.0615L159.45026 91.33637C126.86368 95.83645 104.14859 116.603455 106.4424 139.7982Z" fill-rule="nonzero"/><path fill="#2e5dab" d="M304.06 156.38875C304.06 206.12071 247.76874 246.91037 176.7655 248.62865C105.76226 250.34692 45.581207 212.37587 40.67479 162.76265L40.67479 142.98514C45.581207 192.59837 105.76226 230.56941 176.7655 228.85115C247.76874 227.13287 304.06 186.34322 304.06 136.61125Z" fill-rule="nonzero"/><path fill="#2e5dab" d="M172.21 90.46375C208.61937 90.46375 238.135 111.12469 238.135 136.61125L238.135 156.38875C238.135 130.90219 208.61937 110.24125 172.21 110.24125Z" fill-rule="nonzero"/><path fill="#4285f4" d="M172.21 44.31625C243.84529 44.31625 302.3748 84.353714 304.02502 134.4851C305.67523 184.61652 249.84233 226.49861 178.28307 228.80829C106.72379 231.11798 45.621925 193.01013 40.67479 142.98514L106.4424 139.7982C108.91596 164.81068 139.4669 183.86461 175.24654 182.70978C211.02617 181.55493 238.94261 160.61388 238.11751 135.54819C237.2924 110.48248 208.02765 90.46375 172.21 90.46375Z" fill-rule="nonzero"/><path fill="#4285f4" d="M359.35 28.65C359.35 31.963709 356.6637 34.65 353.35 34.65C350.0363 34.65 347.35 31.963709 347.35 28.65C347.35 25.336292 350.0363 22.65 353.35 22.65C356.6637 22.65 359.35 25.336292 359.35 28.65Z" fill-rule="nonzero"/><path fill="#1a1a1a" d="M368.0375 31.775002L370.1 31.493752Q370.17813 33.4625 370.83438 34.196877Q371.49063 34.915627 372.64688 34.915627Q373.50626 34.915627 374.11563 34.525Q374.74063 34.134377 374.975 33.4625Q375.20938 32.775 375.20938 31.306252L375.20938 19.462502L377.49063 19.462502L377.49063 31.181252Q377.49063 33.3375 376.95938 34.525Q376.44376 35.696877 375.30313 36.321877Q374.17813 36.946877 372.6625 36.946877Q370.39688 36.946877 369.19376 35.65Q367.99063 34.3375 368.0375 31.775002ZM389.05313 35.11875Q387.88126 36.103127 386.7875 36.525Q385.70938 36.93125 384.475 36.93125Q382.42813 36.93125 381.31876 35.93125Q380.225 34.93125 380.225 33.36875Q380.225 32.446877 380.63126 31.696877Q381.05313 30.946877 381.725 30.493752Q382.39688 30.025002 383.24063 29.790627Q383.86563 29.634377 385.11563 29.478127Q387.67813 29.165627 388.88126 28.743752Q388.89688 28.321877 388.89688 28.196877Q388.89688 26.915627 388.2875 26.384377Q387.49063 25.665627 385.89688 25.665627Q384.39688 25.665627 383.69376 26.196877Q382.99063 26.712502 382.64688 28.040627L380.58438 27.759377Q380.86563 26.431252 381.50626 25.618752Q382.14688 24.806252 383.36563 24.368752Q384.58438 23.915627 386.19376 23.915627Q387.7875 23.915627 388.7875 24.290627Q389.7875 24.665627 390.25626 25.243752Q390.725 25.806252 390.9125 26.681252Q391.00626 27.212502 391.00626 28.618752L391.00626 31.431252Q391.00626 34.36875 391.14688 35.15Q391.2875 35.93125 391.67813 36.65L389.475 36.65Q389.14688 35.99375 389.05313 35.11875ZM388.88126 30.400002Q387.725 30.868752 385.42813 31.196877Q384.13126 31.384377 383.58438 31.618752Q383.05313 31.853127 382.75626 32.30625Q382.475 32.759377 382.475 33.30625Q382.475 34.15 383.1 34.7125Q383.74063 35.275 384.975 35.275Q386.19376 35.275 387.14688 34.74375Q388.1 34.2125 388.5375 33.290627Q388.88126 32.571877 388.88126 31.181252L388.88126 30.400002ZM397.39688 36.65L392.6625 24.196877L394.88126 24.196877L397.55313 31.650002Q397.99063 32.86875 398.35 34.165627Q398.63126 33.18125 399.13126 31.790627L401.89688 24.196877L404.06876 24.196877L399.36563 36.65L397.39688 36.65ZM413.05313 35.11875Q411.88126 36.103127 410.7875 36.525Q409.70938 36.93125 408.475 36.93125Q406.42813 36.93125 405.31876 35.93125Q404.225 34.93125 404.225 33.36875Q404.225 32.446877 404.63126 31.696877Q405.05313 30.946877 405.725 30.493752Q406.39688 30.025002 407.24063 29.790627Q407.86563 29.634377 409.11563 29.478127Q411.67813 29.165627 412.88126 28.743752Q412.89688 28.321877 412.89688 28.196877Q412.89688 26.915627 412.2875 26.384377Q411.49063 25.665627 409.89688 25.665627Q408.39688 25.665627 407.69376 26.196877Q406.99063 26.712502 406.64688 28.040627L404.58438 27.759377Q404.86563 26.431252 405.50626 25.618752Q406.14688 24.806252 407.36563 24.368752Q408.58438 23.915627 410.19376 23.915627Q411.7875 23.915627 412.7875 24.290627Q413.7875 24.665627 414.25626 25.243752Q414.725 25.806252 414.9125 26.681252Q415.00626 27.212502 415.00626 28.618752L415.00626 31.431252Q415.00626 34.36875 415.14688 35.15Q415.2875 35.93125 415.67813 36.65L413.475 36.65Q413.14688 35.99375 413.05313 35.11875ZM412.88126 30.400002Q411.725 30.868752 409.42813 31.196877Q408.13126 31.384377 407.58438 31.618752Q407.05313 31.853127 406.75626 32.30625Q406.475 32.759377 406.475 33.30625Q406.475 34.15 407.1 34.7125Q407.74063 35.275 408.975 35.275Q410.19376 35.275 411.14688 34.74375Q412.1 34.2125 412.5375 33.290627Q412.88126 32.571877 412.88126 31.181252L412.88126 30.400002Z" fill-rule="nonzero"/><path fill="#ea4335" d="M359.35 66.65C359.35 69.96371 356.6637 72.65 353.35 72.65C350.0363 72.65 347.35 69.96371 347.35 66.65C347.35 63.336292 350.0363 60.65 353.35 60.65C356.6637 60.65 359.35 63.336292 359.35 66.65Z" fill-rule="nonzero"/><path fill="#1a1a1a" d="M368.42813 69.13438L370.56876 68.94688Q370.725 70.22813 371.27188 71.05625Q371.83438 71.88438 373.00626 72.4Q374.17813 72.9 375.64688 72.9Q376.94376 72.9 377.94376 72.525Q378.94376 72.13438 379.42813 71.4625Q379.9125 70.775 379.9125 69.97813Q379.9125 69.18125 379.44376 68.57188Q378.975 67.9625 377.89688 67.55625Q377.20938 67.29063 374.83438 66.72813Q372.475 66.15 371.52188 65.65Q370.2875 65.00938 369.67813 64.05625Q369.08438 63.0875 369.08438 61.915627Q369.08438 60.603127 369.81876 59.478127Q370.56876 58.353127 371.975 57.775Q373.39688 57.18125 375.13126 57.18125Q377.0375 57.18125 378.49063 57.790627Q379.95938 58.4 380.74063 59.603127Q381.5375 60.790627 381.58438 62.30625L379.4125 62.478127Q379.24063 60.8375 378.225 60.009377Q377.20938 59.18125 375.225 59.18125Q373.1625 59.18125 372.20938 59.946877Q371.27188 60.696877 371.27188 61.759377Q371.27188 62.68125 371.94376 63.275Q372.6 63.884377 375.36563 64.50938Q378.14688 65.13438 379.17813 65.60313Q380.67813 66.29063 381.38126 67.35313Q382.1 68.41563 382.1 69.79063Q382.1 71.16563 381.31876 72.38438Q380.5375 73.5875 379.06876 74.275Q377.6 74.94688 375.75626 74.94688Q373.42813 74.94688 371.85 74.275Q370.27188 73.5875 369.36563 72.22813Q368.475 70.85313 368.42813 69.13438ZM393.05313 70.0875L395.13126 70.35313Q394.7875 72.50938 393.38126 73.72813Q391.99063 74.93125 389.94376 74.93125Q387.39688 74.93125 385.83438 73.25938Q384.2875 71.5875 384.2875 68.47813Q384.2875 66.4625 384.95938 64.94688Q385.63126 63.43125 386.99063 62.68125Q388.35 61.915627 389.95938 61.915627Q391.99063 61.915627 393.27188 62.946877Q394.56876 63.978127 394.92813 65.85313L392.88126 66.18125Q392.58438 64.91563 391.83438 64.29063Q391.1 63.65 390.0375 63.65Q388.44376 63.65 387.44376 64.80625Q386.45938 65.94688 386.45938 68.41563Q386.45938 70.91563 387.4125 72.05625Q388.38126 73.19688 389.92813 73.19688Q391.1625 73.19688 391.99063 72.43125Q392.83438 71.66563 393.05313 70.0875ZM405.05313 73.11875Q403.88126 74.10313 402.7875 74.525Q401.70938 74.93125 400.475 74.93125Q398.42813 74.93125 397.31876 73.93125Q396.225 72.93125 396.225 71.36875Q396.225 70.44688 396.63126 69.69688Q397.05313 68.94688 397.725 68.49375Q398.39688 68.025 399.24063 67.79063Q399.86563 67.63438 401.11563 67.47813Q403.67813 67.16563 404.88126 66.74375Q404.89688 66.32188 404.89688 66.19688Q404.89688 64.91563 404.2875 64.38438Q403.49063 63.665627 401.89688 63.665627Q400.39688 63.665627 399.69376 64.19688Q398.99063 64.7125 398.64688 66.04063L396.58438 65.75938Q396.86563 64.43125 397.50626 63.61875Q398.14688 62.80625 399.36563 62.36875Q400.58438 61.915627 402.19376 61.915627Q403.7875 61.915627 404.7875 62.290627Q405.7875 62.665627 406.25626 63.24375Q406.725 63.80625 406.9125 64.68125Q407.00626 65.2125 407.00626 66.61875L407.00626 69.43125Q407.00626 72.36875 407.14688 73.15Q407.2875 73.93125 407.67813 74.65L405.475 74.65Q405.14688 73.99375 405.05313 73.11875ZM404.88126 68.4Q403.725 68.86875 401.42813 69.19688Q400.13126 69.38438 399.58438 69.61875Q399.05313 69.85313 398.75626 70.30625Q398.475 70.75938 398.475 71.30625Q398.475 72.15 399.1 72.7125Q399.74063 73.275 400.975 73.275Q402.19376 73.275 403.14688 72.74375Q404.1 72.2125 404.5375 71.29063Q404.88126 70.57188 404.88126 69.18125L404.88126 68.4ZM409.88126 74.65L409.88126 57.4625L411.99063 57.4625L411.99063 74.65L409.88126 74.65ZM424.05313 73.11875Q422.88126 74.10313 421.7875 74.525Q420.70938 74.93125 419.475 74.93125Q417.42813 74.93125 416.31876 73.93125Q415.225 72.93125 415.225 71.36875Q415.225 70.44688 415.63126 69.69688Q416.05313 68.94688 416.725 68.49375Q417.39688 68.025 418.24063 67.79063Q418.86563 67.63438 420.11563 67.47813Q422.67813 67.16563 423.88126 66.74375Q423.89688 66.32188 423.89688 66.19688Q423.89688 64.91563 423.2875 64.38438Q422.49063 63.665627 420.89688 63.665627Q419.39688 63.665627 418.69376 64.19688Q417.99063 64.7125 417.64688 66.04063L415.58438 65.75938Q415.86563 64.43125 416.50626 63.61875Q417.14688 62.80625 418.36563 62.36875Q419.58438 61.915627 421.19376 61.915627Q422.7875 61.915627 423.7875 62.290627Q424.7875 62.665627 425.25626 63.24375Q425.725 63.80625 425.9125 64.68125Q426.00626 65.2125 426.00626 66.61875L426.00626 69.43125Q426.00626 72.36875 426.14688 73.15Q426.2875 73.93125 426.67813 74.65L424.475 74.65Q424.14688 73.99375 424.05313 73.11875ZM423.88126 68.4Q422.725 68.86875 420.42813 69.19688Q419.13126 69.38438 418.58438 69.61875Q418.05313 69.85313 417.75626 70.30625Q417.475 70.75938 417.475 71.30625Q417.475 72.15 418.1 72.7125Q418.74063 73.275 419.975 73.275Q421.19376 73.275 422.14688 72.74375Q423.1 72.2125 423.5375 71.29063Q423.88126 70.57188 423.88126 69.18125L423.88126 68.4Z" fill-rule="nonzero"/><path fill="#fbbc04" d="M359.35 104.65C359.35 107.96371 356.6637 110.65 353.35 110.65C350.0363 110.65 347.35 107.96371 347.35 104.65C347.35 101.33629 350.0363 98.65 353.35 98.65C356.6637 98.65 359.35 101.33629 359.35 104.65Z" fill-rule="nonzero"/><path fill="#1a1a1a" d="M369.20938 112.65L369.20938 95.4625L375.67813 95.4625Q377.39688 95.4625 378.30313 95.63438Q379.56876 95.8375 380.4125 96.43125Q381.27188 97.025 381.7875 98.10313Q382.31876 99.16563 382.31876 100.43125Q382.31876 102.63438 380.9125 104.15Q379.52188 105.66563 375.88126 105.66563L371.475 105.66563L371.475 112.65L369.20938 112.65ZM371.475 103.63438L375.9125 103.63438Q378.11563 103.63438 379.0375 102.82188Q379.975 101.99375 379.975 100.50938Q379.975 99.43125 379.42813 98.66563Q378.88126 97.9 377.99063 97.65Q377.4125 97.49375 375.86563 97.49375L371.475 97.49375L371.475 103.63438ZM384.83438 117.44688L384.6 115.4625Q385.30313 115.65 385.81876 115.65Q386.52188 115.65 386.94376 115.41563Q387.36563 115.18125 387.63126 114.75938Q387.83438 114.44688 388.27188 113.19688Q388.33438 113.00938 388.45938 112.68125L383.74063 100.19688L386.00626 100.19688L388.6 107.41563Q389.1 108.775 389.50626 110.29063Q389.86563 108.8375 390.36563 107.4625L393.0375 100.19688L395.14688 100.19688L390.4125 112.86875Q389.64688 114.91563 389.225 115.68125Q388.6625 116.72813 387.92813 117.2125Q387.20938 117.69688 386.19376 117.69688Q385.58438 117.69688 384.83438 117.44688ZM401.5375 110.75938L401.85 112.61875Q400.95938 112.82188 400.25626 112.82188Q399.1 112.82188 398.45938 112.4625Q397.83438 112.0875 397.56876 111.49375Q397.31876 110.9 397.31876 109.00938L397.31876 101.8375L395.77188 101.8375L395.77188 100.19688L397.31876 100.19688L397.31876 97.11875L399.4125 95.85313L399.4125 100.19688L401.5375 100.19688L401.5375 101.8375L399.4125 101.8375L399.4125 109.11875Q399.4125 110.025 399.52188 110.29063Q399.64688 110.54063 399.89688 110.69688Q400.14688 110.8375 400.61563 110.8375Q400.95938 110.8375 401.5375 110.75938ZM403.92813 112.65L403.92813 95.4625L406.0375 95.4625L406.0375 101.63438Q407.52188 99.91563 409.77188 99.91563Q411.14688 99.91563 412.1625 100.4625Q413.19376 101.00938 413.63126 101.97813Q414.06876 102.93125 414.06876 104.75938L414.06876 112.65L411.95938 112.65L411.95938 104.75938Q411.95938 103.18125 411.27188 102.4625Q410.58438 101.74375 409.33438 101.74375Q408.39688 101.74375 407.56876 102.22813Q406.74063 102.7125 406.38126 103.54063Q406.0375 104.36875 406.0375 105.8375L406.0375 112.65L403.92813 112.65ZM417.14688 106.43125Q417.14688 102.9625 419.06876 101.30625Q420.67813 99.91563 422.99063 99.91563Q425.55313 99.91563 427.17813 101.60313Q428.80313 103.29063 428.80313 106.24375Q428.80313 108.65 428.08438 110.025Q427.36563 111.4 425.99063 112.16563Q424.61563 112.93125 422.99063 112.93125Q420.36563 112.93125 418.75626 111.25938Q417.14688 109.57188 417.14688 106.43125ZM419.31876 106.43125Q419.31876 108.82188 420.35 110.00938Q421.39688 111.19688 422.99063 111.19688Q424.55313 111.19688 425.6 110.00938Q426.64688 108.80625 426.64688 106.35313Q426.64688 104.04063 425.58438 102.85313Q424.5375 101.66563 422.99063 101.66563Q421.39688 101.66563 420.35 102.85313Q419.31876 104.04063 419.31876 106.43125ZM430.92813 112.65L430.92813 100.19688L432.83438 100.19688L432.83438 101.97813Q434.20938 99.91563 436.7875 99.91563Q437.9125 99.91563 438.85 100.32188Q439.80313 100.72813 440.27188 101.38438Q440.74063 102.04063 440.92813 102.94688Q441.05313 103.525 441.05313 104.99375L441.05313 112.65L438.94376 112.65L438.94376 105.07188Q438.94376 103.79063 438.69376 103.15Q438.44376 102.50938 437.81876 102.13438Q437.19376 101.74375 436.35 101.74375Q435.00626 101.74375 434.02188 102.60313Q433.0375 103.4625 433.0375 105.85313L433.0375 112.65L430.92813 112.65Z" fill-rule="nonzero"/><path fill="#34a853" d="M359.35 142.65C359.35 145.96371 356.6637 148.65 353.35 148.65C350.0363 148.65 347.35 145.96371 347.35 142.65C347.35 139.33629 350.0363 136.65 353.35 136.65C356.6637 136.65 359.35 139.33629 359.35 142.65Z" fill-rule="nonzero"/><path fill="#1a1a1a" d="M368.42813 145.13437L370.56876 144.94687Q370.725 146.22812 371.27188 147.05624Q371.83438 147.88437 373.00626 148.4Q374.17813 148.9 375.64688 148.9Q376.94376 148.9 377.94376 148.525Q378.94376 148.13437 379.42813 147.4625Q379.9125 146.775 379.9125 145.97812Q379.9125 145.18124 379.44376 144.57187Q378.975 143.9625 377.89688 143.55624Q377.20938 143.29062 374.83438 142.72812Q372.475 142.15 371.52188 141.65Q370.2875 141.00937 369.67813 140.05624Q369.08438 139.0875 369.08438 137.91562Q369.08438 136.60312 369.81876 135.47812Q370.56876 134.35312 371.975 133.775Q373.39688 133.18124 375.13126 133.18124Q377.0375 133.18124 378.49063 133.79062Q379.95938 134.4 380.74063 135.60312Q381.5375 136.79062 381.58438 138.30624L379.4125 138.47812Q379.24063 136.8375 378.225 136.00937Q377.20938 135.18124 375.225 135.18124Q373.1625 135.18124 372.20938 135.94687Q371.27188 136.69687 371.27188 137.75937Q371.27188 138.68124 371.94376 139.275Q372.6 139.88437 375.36563 140.50937Q378.14688 141.13437 379.17813 141.60312Q380.67813 142.29062 381.38126 143.35312Q382.1 144.41562 382.1 145.79062Q382.1 147.16562 381.31876 148.38437Q380.5375 149.5875 379.06876 150.275Q377.6 150.94687 375.75626 150.94687Q373.42813 150.94687 371.85 150.275Q370.27188 149.5875 369.36563 148.22812Q368.475 146.85312 368.42813 145.13437ZM384.92813 150.65L384.92813 133.4625L387.0375 133.4625L387.0375 139.63437Q388.52188 137.91562 390.77188 137.91562Q392.14688 137.91562 393.1625 138.4625Q394.19376 139.00937 394.63126 139.97812Q395.06876 140.93124 395.06876 142.75937L395.06876 150.65L392.95938 150.65L392.95938 142.75937Q392.95938 141.18124 392.27188 140.4625Q391.58438 139.74374 390.33438 139.74374Q389.39688 139.74374 388.56876 140.22812Q387.74063 140.7125 387.38126 141.54062Q387.0375 142.36874 387.0375 143.8375L387.0375 150.65L384.92813 150.65ZM407.45938 146.63437L409.63126 146.91562Q409.11563 148.82187 407.725 149.88437Q406.33438 150.93124 404.1625 150.93124Q401.42813 150.93124 399.81876 149.25937Q398.225 147.57187 398.225 144.525Q398.225 141.38437 399.83438 139.65Q401.45938 137.91562 404.0375 137.91562Q406.5375 137.91562 408.11563 139.61874Q409.70938 141.32187 409.70938 144.4Q409.70938 144.5875 409.69376 144.9625L400.4125 144.9625Q400.52188 147.00937 401.56876 148.10312Q402.61563 149.19687 404.17813 149.19687Q405.33438 149.19687 406.14688 148.5875Q406.975 147.97812 407.45938 146.63437ZM400.52188 143.22812L407.475 143.22812Q407.33438 141.66562 406.67813 140.86874Q405.67813 139.65 404.06876 139.65Q402.61563 139.65 401.61563 140.63437Q400.63126 141.60312 400.52188 143.22812ZM411.88126 150.65L411.88126 133.4625L413.99063 133.4625L413.99063 150.65L411.88126 150.65ZM417.88126 150.65L417.88126 133.4625L419.99063 133.4625L419.99063 150.65L417.88126 150.65Z" fill-rule="nonzero"/><path fill="#ff6d01" d="M359.35 180.65C359.35 183.96371 356.6637 186.65 353.35 186.65C350.0363 186.65 347.35 183.96371 347.35 180.65C347.35 177.33629 350.0363 174.65 353.35 174.65C356.6637 174.65 359.35 177.33629 359.35 180.65Z" fill-rule="nonzero"/><path fill="#1a1a1a" d="M369.24063 188.65L369.24063 171.4625L376.85 171.4625Q379.14688 171.4625 380.33438 171.93124Q381.5375 172.4 382.25626 173.57187Q382.975 174.74374 382.975 176.15Q382.975 177.97812 381.7875 179.24374Q380.6 180.49374 378.13126 180.8375Q379.0375 181.25937 379.50626 181.68124Q380.50626 182.60312 381.39688 183.97812L384.38126 188.65L381.52188 188.65L379.24063 185.07187Q378.25626 183.525 377.6 182.7125Q376.95938 181.88437 376.44376 181.55624Q375.94376 181.22812 375.4125 181.10312Q375.02188 181.025 374.14688 181.025L371.50626 181.025L371.50626 188.65L369.24063 188.65ZM371.50626 179.05624L376.39688 179.05624Q377.95938 179.05624 378.83438 178.72812Q379.70938 178.4 380.1625 177.69687Q380.63126 176.99374 380.63126 176.15Q380.63126 174.93124 379.74063 174.15Q378.86563 173.36874 376.94376 173.36874L371.50626 173.36874L371.50626 179.05624ZM385.14688 182.43124Q385.14688 178.9625 387.06876 177.30624Q388.67813 175.91562 390.99063 175.91562Q393.55313 175.91562 395.17813 177.60312Q396.80313 179.29062 396.80313 182.24374Q396.80313 184.65 396.08438 186.025Q395.36563 187.4 393.99063 188.16562Q392.61563 188.93124 390.99063 188.93124Q388.36563 188.93124 386.75626 187.25937Q385.14688 185.57187 385.14688 182.43124ZM387.31876 182.43124Q387.31876 184.82187 388.35 186.00937Q389.39688 187.19687 390.99063 187.19687Q392.55313 187.19687 393.6 186.00937Q394.64688 184.80624 394.64688 182.35312Q394.64688 180.04062 393.58438 178.85312Q392.5375 177.66562 390.99063 177.66562Q389.39688 177.66562 388.35 178.85312Q387.31876 180.04062 387.31876 182.43124ZM399.44376 188.65L399.44376 177.8375L397.56876 177.8375L397.56876 176.19687L399.44376 176.19687L399.44376 174.88437Q399.44376 173.61874 399.6625 173.00937Q399.95938 172.19687 400.725 171.69687Q401.50626 171.18124 402.88126 171.18124Q403.77188 171.18124 404.85 171.38437L404.5375 173.22812Q403.88126 173.10312 403.2875 173.10312Q402.33438 173.10312 401.92813 173.525Q401.5375 173.93124 401.5375 175.05624L401.5375 176.19687L403.95938 176.19687L403.95938 177.8375L401.5375 177.8375L401.5375 188.65L399.44376 188.65ZM406.44376 188.65L406.44376 177.8375L404.56876 177.8375L404.56876 176.19687L406.44376 176.19687L406.44376 174.88437Q406.44376 173.61874 406.6625 173.00937Q406.95938 172.19687 407.725 171.69687Q408.50626 171.18124 409.88126 171.18124Q410.77188 171.18124 411.85 171.38437L411.5375 173.22812Q410.88126 173.10312 410.2875 173.10312Q409.33438 173.10312 408.92813 173.525Q408.5375 173.93124 408.5375 175.05624L408.5375 176.19687L410.95938 176.19687L410.95938 177.8375L408.5375 177.8375L408.5375 188.65L406.44376 188.65Z" fill-rule="nonzero"/><path fill="#46bdc6" d="M359.35 218.65C359.35 221.96371 356.6637 224.65 353.35 224.65C350.0363 224.65 347.35 221.96371 347.35 218.65C347.35 215.33629 350.0363 212.65 353.35 212.65C356.6637 212.65 359.35 215.33629 359.35 218.65Z" fill-rule="nonzero"/><path fill="#1a1a1a" d="M369.11563 226.65L369.11563 209.4625L375.55313 209.4625Q377.52188 209.4625 378.70938 209.99374Q379.89688 210.50937 380.56876 211.60312Q381.25626 212.68124 381.25626 213.86874Q381.25626 214.9625 380.64688 215.94687Q380.05313 216.91562 378.85 217.50937Q380.4125 217.9625 381.24063 219.07187Q382.08438 220.16562 382.08438 221.66562Q382.08438 222.86874 381.56876 223.91562Q381.06876 224.94687 380.31876 225.50937Q379.56876 226.07187 378.42813 226.36874Q377.30313 226.65 375.6625 226.65L369.11563 226.65ZM371.38126 216.68124L375.1 216.68124Q376.61563 216.68124 377.27188 216.49374Q378.13126 216.22812 378.56876 215.63437Q379.00626 215.04062 379.00626 214.13437Q379.00626 213.275 378.6 212.63437Q378.19376 211.97812 377.42813 211.74374Q376.6625 211.49374 374.81876 211.49374L371.38126 211.49374L371.38126 216.68124ZM371.38126 224.61874L375.6625 224.61874Q376.75626 224.61874 377.20938 224.54062Q377.99063 224.4 378.52188 224.07187Q379.05313 223.74374 379.38126 223.11874Q379.725 222.49374 379.725 221.66562Q379.725 220.7125 379.225 220.00937Q378.74063 219.29062 377.86563 219.00937Q376.99063 218.7125 375.35 218.7125L371.38126 218.7125L371.38126 224.61874ZM393.05313 225.11874Q391.88126 226.10312 390.7875 226.525Q389.70938 226.93124 388.475 226.93124Q386.42813 226.93124 385.31876 225.93124Q384.225 224.93124 384.225 223.36874Q384.225 222.44687 384.63126 221.69687Q385.05313 220.94687 385.725 220.49374Q386.39688 220.025 387.24063 219.79062Q387.86563 219.63437 389.11563 219.47812Q391.67813 219.16562 392.88126 218.74374Q392.89688 218.32187 392.89688 218.19687Q392.89688 216.91562 392.2875 216.38437Q391.49063 215.66562 389.89688 215.66562Q388.39688 215.66562 387.69376 216.19687Q386.99063 216.7125 386.64688 218.04062L384.58438 217.75937Q384.86563 216.43124 385.50626 215.61874Q386.14688 214.80624 387.36563 214.36874Q388.58438 213.91562 390.19376 213.91562Q391.7875 213.91562 392.7875 214.29062Q393.7875 214.66562 394.25626 215.24374Q394.725 215.80624 394.9125 216.68124Q395.00626 217.2125 395.00626 218.61874L395.00626 221.43124Q395.00626 224.36874 395.14688 225.15Q395.2875 225.93124 395.67813 226.65L393.475 226.65Q393.14688 225.99374 393.05313 225.11874ZM392.88126 220.4Q391.725 220.86874 389.42813 221.19687Q388.13126 221.38437 387.58438 221.61874Q387.05313 221.85312 386.75626 222.30624Q386.475 222.75937 386.475 223.30624Q386.475 224.15 387.1 224.7125Q387.74063 225.275 388.975 225.275Q390.19376 225.275 391.14688 224.74374Q392.1 224.2125 392.5375 223.29062Q392.88126 222.57187 392.88126 221.18124L392.88126 220.4ZM402.5375 224.75937L402.85 226.61874Q401.95938 226.82187 401.25626 226.82187Q400.1 226.82187 399.45938 226.4625Q398.83438 226.0875 398.56876 225.49374Q398.31876 224.9 398.31876 223.00937L398.31876 215.8375L396.77188 215.8375L396.77188 214.19687L398.31876 214.19687L398.31876 211.11874L400.4125 209.85312L400.4125 214.19687L402.5375 214.19687L402.5375 215.8375L400.4125 215.8375L400.4125 223.11874Q400.4125 224.025 400.52188 224.29062Q400.64688 224.54062 400.89688 224.69687Q401.14688 224.8375 401.61563 224.8375Q401.95938 224.8375 402.5375 224.75937ZM413.05313 222.0875L415.13126 222.35312Q414.7875 224.50937 413.38126 225.72812Q411.99063 226.93124 409.94376 226.93124Q407.39688 226.93124 405.83438 225.25937Q404.2875 223.5875 404.2875 220.47812Q404.2875 218.4625 404.95938 216.94687Q405.63126 215.43124 406.99063 214.68124Q408.35 213.91562 409.95938 213.91562Q411.99063 213.91562 413.27188 214.94687Q414.56876 215.97812 414.92813 217.85312L412.88126 218.18124Q412.58438 216.91562 411.83438 216.29062Q411.1 215.65 410.0375 215.65Q408.44376 215.65 407.44376 216.80624Q406.45938 217.94687 406.45938 220.41562Q406.45938 222.91562 407.4125 224.05624Q408.38126 225.19687 409.92813 225.19687Q411.1625 225.19687 411.99063 224.43124Q412.83438 223.66562 413.05313 222.0875ZM416.92813 226.65L416.92813 209.4625L419.0375 209.4625L419.0375 215.63437Q420.52188 213.91562 422.77188 213.91562Q424.14688 213.91562 425.1625 214.4625Q426.19376 215.00937 426.63126 215.97812Q427.06876 216.93124 427.06876 218.75937L427.06876 226.65L424.95938 226.65L424.95938 218.75937Q424.95938 217.18124 424.27188 216.4625Q423.58438 215.74374 422.33438 215.74374Q421.39688 215.74374 420.56876 216.22812Q419.74063 216.7125 419.38126 217.54062Q419.0375 218.36874 419.0375 219.8375L419.0375 226.65L416.92813 226.65ZM431.44376 226.65L431.44376 215.8375L429.56876 215.8375L429.56876 214.19687L431.44376 214.19687L431.44376 212.88437Q431.44376 211.61874 431.6625 211.00937Q431.95938 210.19687 432.725 209.69687Q433.50626 209.18124 434.88126 209.18124Q435.77188 209.18124 436.85 209.38437L436.5375 211.22812Q435.88126 211.10312 435.2875 211.10312Q434.33438 211.10312 433.92813 211.525Q433.5375 211.93124 433.5375 213.05624L433.5375 214.19687L435.95938 214.19687L435.95938 215.8375L433.5375 215.8375L433.5375 226.65L431.44376 226.65ZM437.94376 211.9L437.94376 209.4625L440.05313 209.4625L440.05313 211.9L437.94376 211.9ZM437.94376 226.65L437.94376 214.19687L440.05313 214.19687L440.05313 226.65L437.94376 226.65ZM442.88126 226.65L442.88126 209.4625L444.99063 209.4625L444.99063 226.65L442.88126 226.65ZM457.45938 222.63437L459.63126 222.91562Q459.11563 224.82187 457.725 225.88437Q456.33438 226.93124 454.1625 226.93124Q451.42813 226.93124 449.81876 225.25937Q448.225 223.57187 448.225 220.525Q448.225 217.38437 449.83438 215.65Q451.45938 213.91562 454.0375 213.91562Q456.5375 213.91562 458.11563 215.61874Q459.70938 217.32187 459.70938 220.4Q459.70938 220.5875 459.69376 220.9625L450.4125 220.9625Q450.52188 223.00937 451.56876 224.10312Q452.61563 225.19687 454.17813 225.19687Q455.33438 225.19687 456.14688 224.5875Q456.975 223.97812 457.45938 222.63437ZM450.52188 219.22812L457.475 219.22812Q457.33438 217.66562 456.67813 216.86874Q455.67813 215.65 454.06876 215.65Q452.61563 215.65 451.61563 216.63437Q450.63126 217.60312 450.52188 219.22812Z" fill-rule="nonzero"/></svg>