<svg version="1.1" viewBox="0.0 0.0 813.0 464.0" fill="none" stroke="none" stroke-linecap="square" stroke-miterlimit="10" width="813" height="464" xmlns:xlink="http://www.w3.org/1999/xlink" xmlns="http://www.w3.org/2000/svg"><path fill="#ffffff" d="M0 0L813.0 0L813.0 464.0L0 464.0L0 0Z" fill-rule="nonzero"/><path stroke="#333333" stroke-width="1.0" stroke-linecap="butt" d="M103.5 388.5L789.5 388.5" fill-rule="nonzero"/><path stroke="#cccccc" stroke-width="1.0" stroke-linecap="butt" d="M103.5 279.5L789.5 279.5" fill-rule="nonzero"/><path stroke="#cccccc" stroke-width="1.0" stroke-linecap="butt" d="M103.5 169.5L789.5 169.5" fill-rule="nonzero"/><path stroke="#cccccc" stroke-width="1.0" stroke-linecap="butt" d="M103.5 59.5L789.5 59.5" fill-rule="nonzero"/><clipPath id="id_0"><path d="M103.2 59.666668L789.8 59.666668L789.8 388.8L103.2 388.8L103.2 59.666668Z" clip-rule="nonzero"/></clipPath><path fill="#4285f4" fill-opacity="0.3019608" clip-path="url(#id_0)" d="M103.2 322.39023L141.58824 322.39023C142.69281 322.39023 143.58824 321.49478 143.58824 320.39023L143.58824 302.87424C143.58824 301.76965 144.48367 300.87424 145.58824 300.87424L181.97647 300.87424C183.08104 300.87424 183.97647 299.9788 183.97647 298.87424L183.97647 285.7143C183.97647 284.60974 184.8719 283.7143 185.97647 283.7143L222.3647 283.7143C223.46927 283.7143 224.3647 282.81888 224.3647 281.7143L224.3647 244.90398C224.3647 243.79941 225.26013 242.90398 226.3647 242.90398L262.75293 242.90398C263.8575 242.90398 264.75293 242.00854 264.75293 240.90398L264.75293 229.14726C264.75293 228.0427 265.64838 227.14726 266.75293 227.14726L303.14117 227.14726C304.24576 227.14726 305.14117 226.25183 305.14117 225.14726L305.14117 218.70276C305.14117 217.59819 306.03662 216.70276 307.14117 216.70276L343.52942 216.70276C344.63397 216.70276 345.52942 215.80733 345.52942 214.70276L345.52942 208.10193C345.52942 206.99736 346.42484 206.10193 347.52942 206.10193L383.91763 206.10193C385.02222 206.10193 385.91763 205.2065 385.91763 204.10193L385.91763 201.53023C385.91763 200.42566 386.81308 199.53023 387.91763 199.53023L424.30588 199.53023C425.41046 199.53023 426.30588 198.6348 426.30588 197.53023L426.30588 193.74678C426.30588 192.64221 427.20132 191.74678 428.30588 191.74678L464.69412 191.74678C465.79868 191.74678 466.69412 190.85135 466.69412 189.74678L466.69412 180.97586C466.69412 179.87129 467.58954 178.97586 468.69412 178.97586L505.08237 178.97586C506.18692 178.97586 507.08237 178.08043 507.08237 176.97586L507.08237 161.84827C507.08237 160.7437 507.97778 159.84827 509.08237 159.84827L545.4706 159.84827C546.57513 159.84827 547.4706 158.95284 547.4706 157.84827L547.4706 150.77568C547.4706 149.67111 548.366 148.77568 549.4706 148.77568L585.8588 148.77568C586.9634 148.77568 587.8588 147.88025 587.8588 146.77568L587.8588 134.3053C587.8588 133.20073 588.7543 132.3053 589.8588 132.3053L626.2471 132.3053C627.3516 132.3053 628.2471 131.40987 628.2471 130.3053L628.2471 114.769035C628.2471 113.66447 629.1425 112.769035 630.2471 112.769035L666.6353 112.769035C667.73987 112.769035 668.6353 111.87361 668.6353 110.769035L668.6353 99.90318C668.6353 98.798615 669.5307 97.90318 670.6353 97.90318L707.02356 97.90318C708.1281 97.90318 709.02356 97.00775 709.02356 95.90318L709.02356 80.3746C709.02356 79.270035 709.91895 78.3746 711.02356 78.3746L747.41174 78.3746C748.51636 78.3746 749.41174 77.47917 749.41174 76.3746L749.41174 72.349785C749.41174 71.24522 750.3072 70.349785 751.41174 70.349785L789.8 70.349785L789.8 388.8L103.2 388.8Z" fill-rule="nonzero"/><path fill="#ea4335" fill-opacity="0.3019608" clip-path="url(#id_0)" d="M103.2 298.6641L141.58824 298.6641C142.69281 298.6641 143.58824 297.76868 143.58824 296.6641L143.58824 289.30624C143.58824 288.2017 144.48367 287.30624 145.58824 287.30624L182.80914 287.30624C183.45384 287.30624 183.97647 286.78363 183.97647 286.13892L183.97647 286.13892C183.97647 285.49423 184.4991 284.9716 185.1438 284.9716L222.3647 284.9716C223.46927 284.9716 224.3647 284.07617 224.3647 282.9716L224.3647 273.03336C224.3647 271.92877 225.26013 271.03336 226.3647 271.03336L263.37524 271.03336C264.13614 271.03336 264.75293 270.41653 264.75293 269.65564L264.75293 269.65564C264.75293 268.89478 265.36975 268.27795 266.13065 268.27795L303.14117 268.27795C304.24576 268.27795 305.14117 267.38254 305.14117 266.27795L305.14117 263.85876C305.14117 262.75418 306.03662 261.85876 307.14117 261.85876L344.03845 261.85876C344.86188 261.85876 345.52942 262.52628 345.52942 263.34973L345.52942 263.34973C345.52942 264.1732 346.19693 264.8407 347.0204 264.8407L384.49112 264.8407C385.27896 264.8407 385.91763 264.20203 385.91763 263.41418L385.91763 263.41418C385.91763 262.62634 386.55634 261.98767 387.34418 261.98767L425.17065 261.98767C425.7976 261.98767 426.30588 261.4794 426.30588 260.85245L426.30588 260.85245C426.30588 260.22546 426.81415 259.7172 427.44113 259.7172L465.23825 259.7172C466.0423 259.7172 466.69412 259.0654 466.69412 258.26132L466.69412 258.26132C466.69412 257.45728 467.34592 256.80545 468.15 256.80545L505.08237 256.80545C506.18692 256.80545 507.08237 255.91003 507.08237 254.80547L507.08237 254.62273C507.08237 253.51816 507.97778 252.62273 509.08237 252.62273L546.1527 252.62273C546.88055 252.62273 547.4706 252.03268 547.4706 251.30482L547.4706 251.30482C547.4706 250.57697 548.0606 249.98692 548.7885 249.98692L586.86755 249.98692C587.41504 249.98692 587.8588 249.54312 587.8588 248.99568L587.8588 248.99568C587.8588 248.44823 588.3026 248.00444 588.85004 248.00444L626.3414 248.00444C627.39386 248.00444 628.2471 247.15123 628.2471 246.09875L628.2471 246.09875C628.2471 245.04628 629.1003 244.19307 630.1528 244.19307L666.6353 244.19307C667.73987 244.19307 668.6353 245.0885 668.6353 246.19307L668.6353 248.68468C668.6353 249.78925 669.5307 250.68468 670.6353 250.68468L707.02356 250.68468C708.1281 250.68468 709.02356 251.58011 709.02356 252.68468L709.02356 255.3266C709.02356 256.43115 709.91895 257.3266 711.02356 257.3266L747.41174 257.3266C748.51636 257.3266 749.41174 256.43115 749.41174 255.3266L749.41174 245.04166C749.41174 243.93709 750.3072 243.04166 751.41174 243.04166L789.8 243.04166L789.8 388.8L103.2 388.8Z" fill-rule="nonzero"/><path stroke="#4285f4" stroke-width="2.0" stroke-linecap="butt" clip-path="url(#id_0)" d="M103.2 322.39023L141.58824 322.39023C142.69281 322.39023 143.58824 321.49478 143.58824 320.39023L143.58824 302.87424C143.58824 301.76965 144.48367 300.87424 145.58824 300.87424L181.97647 300.87424C183.08104 300.87424 183.97647 299.9788 183.97647 298.87424L183.97647 285.7143C183.97647 284.60974 184.8719 283.7143 185.97647 283.7143L222.3647 283.7143C223.46927 283.7143 224.3647 282.81888 224.3647 281.7143L224.3647 244.90398C224.3647 243.79941 225.26013 242.90398 226.3647 242.90398L262.75293 242.90398C263.8575 242.90398 264.75293 242.00854 264.75293 240.90398L264.75293 229.14726C264.75293 228.0427 265.64838 227.14726 266.75293 227.14726L303.14117 227.14726C304.24576 227.14726 305.14117 226.25183 305.14117 225.14726L305.14117 218.70276C305.14117 217.59819 306.03662 216.70276 307.14117 216.70276L343.52942 216.70276C344.63397 216.70276 345.52942 215.80733 345.52942 214.70276L345.52942 208.10193C345.52942 206.99736 346.42484 206.10193 347.52942 206.10193L383.91763 206.10193C385.02222 206.10193 385.91763 205.2065 385.91763 204.10193L385.91763 201.53023C385.91763 200.42566 386.81308 199.53023 387.91763 199.53023L424.30588 199.53023C425.41046 199.53023 426.30588 198.6348 426.30588 197.53023L426.30588 193.74678C426.30588 192.64221 427.20132 191.74678 428.30588 191.74678L464.69412 191.74678C465.79868 191.74678 466.69412 190.85135 466.69412 189.74678L466.69412 180.97586C466.69412 179.87129 467.58954 178.97586 468.69412 178.97586L505.08237 178.97586C506.18692 178.97586 507.08237 178.08043 507.08237 176.97586L507.08237 161.84827C507.08237 160.7437 507.97778 159.84827 509.08237 159.84827L545.4706 159.84827C546.57513 159.84827 547.4706 158.95284 547.4706 157.84827L547.4706 150.77568C547.4706 149.67111 548.366 148.77568 549.4706 148.77568L585.8588 148.77568C586.9634 148.77568 587.8588 147.88025 587.8588 146.77568L587.8588 134.3053C587.8588 133.20073 588.7543 132.3053 589.8588 132.3053L626.2471 132.3053C627.3516 132.3053 628.2471 131.40987 628.2471 130.3053L628.2471 114.769035C628.2471 113.66447 629.1425 112.769035 630.2471 112.769035L666.6353 112.769035C667.73987 112.769035 668.6353 111.87361 668.6353 110.769035L668.6353 99.90318C668.6353 98.798615 669.5307 97.90318 670.6353 97.90318L707.02356 97.90318C708.1281 97.90318 709.02356 97.00775 709.02356 95.90318L709.02356 80.3746C709.02356 79.270035 709.91895 78.3746 711.02356 78.3746L747.41174 78.3746C748.51636 78.3746 749.41174 77.47917 749.41174 76.3746L749.41174 72.349785C749.41174 71.24522 750.3072 70.349785 751.41174 70.349785L789.8 70.349785" fill-rule="nonzero"/><path stroke="#ea4335" stroke-width="2.0" stroke-linecap="butt" clip-path="url(#id_0)" d="M103.2 298.6641L141.58824 298.6641C142.69281 298.6641 143.58824 297.76868 143.58824 296.6641L143.58824 289.30624C143.58824 288.2017 144.48367 287.30624 145.58824 287.30624L182.80914 287.30624C183.45384 287.30624 183.97647 286.78363 183.97647 286.13892L183.97647 286.13892C183.97647 285.49423 184.4991 284.9716 185.1438 284.9716L222.3647 284.9716C223.46927 284.9716 224.3647 284.07617 224.3647 282.9716L224.3647 273.03336C224.3647 271.92877 225.26013 271.03336 226.3647 271.03336L263.37524 271.03336C264.13614 271.03336 264.75293 270.41653 264.75293 269.65564L264.75293 269.65564C264.75293 268.89478 265.36975 268.27795 266.13065 268.27795L303.14117 268.27795C304.24576 268.27795 305.14117 267.38254 305.14117 266.27795L305.14117 263.85876C305.14117 262.75418 306.03662 261.85876 307.14117 261.85876L344.03845 261.85876C344.86188 261.85876 345.52942 262.52628 345.52942 263.34973L345.52942 263.34973C345.52942 264.1732 346.19693 264.8407 347.0204 264.8407L384.49112 264.8407C385.27896 264.8407 385.91763 264.20203 385.91763 263.41418L385.91763 263.41418C385.91763 262.62634 386.55634 261.98767 387.34418 261.98767L425.17065 261.98767C425.7976 261.98767 426.30588 261.4794 426.30588 260.85245L426.30588 260.85245C426.30588 260.22546 426.81415 259.7172 427.44113 259.7172L465.23825 259.7172C466.0423 259.7172 466.69412 259.0654 466.69412 258.26132L466.69412 258.26132C466.69412 257.45728 467.34592 256.80545 468.15 256.80545L505.08237 256.80545C506.18692 256.80545 507.08237 255.91003 507.08237 254.80547L507.08237 254.62273C507.08237 253.51816 507.97778 252.62273 509.08237 252.62273L546.1527 252.62273C546.88055 252.62273 547.4706 252.03268 547.4706 251.30482L547.4706 251.30482C547.4706 250.57697 548.0606 249.98692 548.7885 249.98692L586.86755 249.98692C587.41504 249.98692 587.8588 249.54312 587.8588 248.99568L587.8588 248.99568C587.8588 248.44823 588.3026 248.00444 588.85004 248.00444L626.3414 248.00444C627.39386 248.00444 628.2471 247.15123 628.2471 246.09875L628.2471 246.09875C628.2471 245.04628 629.1003 244.19307 630.1528 244.19307L666.6353 244.19307C667.73987 244.19307 668.6353 245.0885 668.6353 246.19307L668.6353 248.68468C668.6353 249.78925 669.5307 250.68468 670.6353 250.68468L707.02356 250.68468C708.1281 250.68468 709.02356 251.58011 709.02356 252.68468L709.02356 255.3266C709.02356 256.43115 709.91895 257.3266 711.02356 257.3266L747.41174 257.3266C748.51636 257.3266 749.41174 256.43115 749.41174 255.3266L749.41174 245.04166C749.41174 243.93709 750.3072 243.04166 751.41174 243.04166L789.8 243.04166" fill-rule="nonzero"/><path fill="#000000" fill-opacity="0.0" clip-path="url(#id_0)" d="M126.39412 322.39023C126.39412 324.04706 125.05097 325.39023 123.39412 325.39023C121.73727 325.39023 120.39412 324.04706 120.39412 322.39023C120.39412 320.73337 121.73727 319.39023 123.39412 319.39023C125.05097 319.39023 126.39412 320.73337 126.39412 322.39023Z" fill-rule="nonzero"/><path fill="#000000" fill-opacity="0.0" clip-path="url(#id_0)" d="M166.78235 300.87424C166.78235 302.53107 165.43921 303.87424 163.78235 303.87424C162.1255 303.87424 160.78235 302.53107 160.78235 300.87424C160.78235 299.21738 162.1255 297.87424 163.78235 297.87424C165.43921 297.87424 166.78235 299.21738 166.78235 300.87424Z" fill-rule="nonzero"/><path fill="#000000" fill-opacity="0.0" clip-path="url(#id_0)" d="M207.1706 283.7143C207.1706 285.37115 205.82744 286.7143 204.1706 286.7143C202.51373 286.7143 201.1706 285.37115 201.1706 283.7143C201.1706 282.05746 202.51373 280.7143 204.1706 280.7143C205.82744 280.7143 207.1706 282.05746 207.1706 283.7143Z" fill-rule="nonzero"/><path fill="#000000" fill-opacity="0.0" clip-path="url(#id_0)" d="M247.55882 242.90398C247.55882 244.56082 246.21568 245.90398 244.55882 245.90398C242.90196 245.90398 241.55882 244.56082 241.55882 242.90398C241.55882 241.24712 242.90196 239.90398 244.55882 239.90398C246.21568 239.90398 247.55882 241.24712 247.55882 242.90398Z" fill-rule="nonzero"/><path fill="#000000" fill-opacity="0.0" clip-path="url(#id_0)" d="M287.94705 227.14726C287.94705 228.80411 286.6039 230.14726 284.94705 230.14726C283.2902 230.14726 281.94705 228.80411 281.94705 227.14726C281.94705 225.4904 283.2902 224.14726 284.94705 224.14726C286.6039 224.14726 287.94705 225.4904 287.94705 227.14726Z" fill-rule="nonzero"/><path fill="#000000" fill-opacity="0.0" clip-path="url(#id_0)" d="M328.3353 216.70276C328.3353 218.35962 326.99216 219.70276 325.3353 219.70276C323.67844 219.70276 322.3353 218.35962 322.3353 216.70276C322.3353 215.04591 323.67844 213.70276 325.3353 213.70276C326.99216 213.70276 328.3353 215.04591 328.3353 216.70276Z" fill-rule="nonzero"/><path fill="#000000" fill-opacity="0.0" clip-path="url(#id_0)" d="M368.72354 206.10193C368.72354 207.75877 367.38037 209.10193 365.72354 209.10193C364.06668 209.10193 362.72354 207.75877 362.72354 206.10193C362.72354 204.44507 364.06668 203.10193 365.72354 203.10193C367.38037 203.10193 368.72354 204.44507 368.72354 206.10193Z" fill-rule="nonzero"/><path fill="#000000" fill-opacity="0.0" clip-path="url(#id_0)" d="M409.11176 199.53023C409.11176 201.18709 407.76862 202.53023 406.11176 202.53023C404.45493 202.53023 403.11176 201.18709 403.11176 199.53023C403.11176 197.87338 404.45493 196.53023 406.11176 196.53023C407.76862 196.53023 409.11176 197.87338 409.11176 199.53023Z" fill-rule="nonzero"/><path fill="#000000" fill-opacity="0.0" clip-path="url(#id_0)" d="M449.5 191.74678C449.5 193.40363 448.15686 194.74678 446.5 194.74678C444.84314 194.74678 443.5 193.40363 443.5 191.74678C443.5 190.08992 444.84314 188.74678 446.5 188.74678C448.15686 188.74678 449.5 190.08992 449.5 191.74678Z" fill-rule="nonzero"/><path fill="#000000" fill-opacity="0.0" clip-path="url(#id_0)" d="M489.88824 178.97586C489.88824 180.6327 488.54507 181.97586 486.88824 181.97586C485.23138 181.97586 483.88824 180.6327 483.88824 178.97586C483.88824 177.319 485.23138 175.97586 486.88824 175.97586C488.54507 175.97586 489.88824 177.319 489.88824 178.97586Z" fill-rule="nonzero"/><path fill="#000000" fill-opacity="0.0" clip-path="url(#id_0)" d="M530.2765 159.84827C530.2765 161.50513 528.93335 162.84827 527.2765 162.84827C525.6196 162.84827 524.2765 161.50513 524.2765 159.84827C524.2765 158.19142 525.6196 156.84827 527.2765 156.84827C528.93335 156.84827 530.2765 158.19142 530.2765 159.84827Z" fill-rule="nonzero"/><path fill="#000000" fill-opacity="0.0" clip-path="url(#id_0)" d="M570.66473 148.77568C570.66473 150.43253 569.32153 151.77568 567.66473 151.77568C566.0079 151.77568 564.66473 150.43253 564.66473 148.77568C564.66473 147.11882 566.0079 145.77568 567.66473 145.77568C569.32153 145.77568 570.66473 147.11882 570.66473 148.77568Z" fill-rule="nonzero"/><path fill="#000000" fill-opacity="0.0" clip-path="url(#id_0)" d="M611.0529 132.3053C611.0529 133.96214 609.7098 135.3053 608.0529 135.3053C606.39606 135.3053 605.0529 133.96214 605.0529 132.3053C605.0529 130.64844 606.39606 129.3053 608.0529 129.3053C609.7098 129.3053 611.0529 130.64844 611.0529 132.3053Z" fill-rule="nonzero"/><path fill="#000000" fill-opacity="0.0" clip-path="url(#id_0)" d="M651.44116 112.769035C651.44116 114.425896 650.098 115.769035 648.44116 115.769035C646.7843 115.769035 645.44116 114.425896 645.44116 112.769035C645.44116 111.11218 646.7843 109.769035 648.44116 109.769035C650.098 109.769035 651.44116 111.11218 651.44116 112.769035Z" fill-rule="nonzero"/><path fill="#000000" fill-opacity="0.0" clip-path="url(#id_0)" d="M691.8294 97.90318C691.8294 99.560036 690.48627 100.90318 688.8294 100.90318C687.17255 100.90318 685.8294 99.560036 685.8294 97.90318C685.8294 96.24633 687.17255 94.90318 688.8294 94.90318C690.48627 94.90318 691.8294 96.24633 691.8294 97.90318Z" fill-rule="nonzero"/><path fill="#000000" fill-opacity="0.0" clip-path="url(#id_0)" d="M732.21765 78.3746C732.21765 80.031456 730.8745 81.3746 729.21765 81.3746C727.5608 81.3746 726.21765 80.031456 726.21765 78.3746C726.21765 76.71775 727.5608 75.3746 729.21765 75.3746C730.8745 75.3746 732.21765 76.71775 732.21765 78.3746Z" fill-rule="nonzero"/><path fill="#000000" fill-opacity="0.0" clip-path="url(#id_0)" d="M772.6059 70.349785C772.6059 72.00664 771.26276 73.349785 769.6059 73.349785C767.94904 73.349785 766.6059 72.00664 766.6059 70.349785C766.6059 68.69293 767.94904 67.349785 769.6059 67.349785C771.26276 67.349785 772.6059 68.69293 772.6059 70.349785Z" fill-rule="nonzero"/><path fill="#000000" fill-opacity="0.0" clip-path="url(#id_0)" d="M126.39412 298.6641C126.39412 300.32095 125.05097 301.6641 123.39412 301.6641C121.73727 301.6641 120.39412 300.32095 120.39412 298.6641C120.39412 297.00723 121.73727 295.6641 123.39412 295.6641C125.05097 295.6641 126.39412 297.00723 126.39412 298.6641Z" fill-rule="nonzero"/><path fill="#000000" fill-opacity="0.0" clip-path="url(#id_0)" d="M166.78235 287.30624C166.78235 288.9631 165.43921 290.30624 163.78235 290.30624C162.1255 290.30624 160.78235 288.9631 160.78235 287.30624C160.78235 285.64938 162.1255 284.30624 163.78235 284.30624C165.43921 284.30624 166.78235 285.64938 166.78235 287.30624Z" fill-rule="nonzero"/><path fill="#000000" fill-opacity="0.0" clip-path="url(#id_0)" d="M207.1706 284.9716C207.1706 286.62845 205.82744 287.9716 204.1706 287.9716C202.51373 287.9716 201.1706 286.62845 201.1706 284.9716C201.1706 283.31476 202.51373 281.9716 204.1706 281.9716C205.82744 281.9716 207.1706 283.31476 207.1706 284.9716Z" fill-rule="nonzero"/><path fill="#000000" fill-opacity="0.0" clip-path="url(#id_0)" d="M247.55882 271.03336C247.55882 272.69022 246.21568 274.03336 244.55882 274.03336C242.90196 274.03336 241.55882 272.69022 241.55882 271.03336C241.55882 269.3765 242.90196 268.03336 244.55882 268.03336C246.21568 268.03336 247.55882 269.3765 247.55882 271.03336Z" fill-rule="nonzero"/><path fill="#000000" fill-opacity="0.0" clip-path="url(#id_0)" d="M287.94705 268.27795C287.94705 269.9348 286.6039 271.27795 284.94705 271.27795C283.2902 271.27795 281.94705 269.9348 281.94705 268.27795C281.94705 266.6211 283.2902 265.27795 284.94705 265.27795C286.6039 265.27795 287.94705 266.6211 287.94705 268.27795Z" fill-rule="nonzero"/><path fill="#000000" fill-opacity="0.0" clip-path="url(#id_0)" d="M328.3353 261.85876C328.3353 263.51562 326.99216 264.85876 325.3353 264.85876C323.67844 264.85876 322.3353 263.51562 322.3353 261.85876C322.3353 260.2019 323.67844 258.85876 325.3353 258.85876C326.99216 258.85876 328.3353 260.2019 328.3353 261.85876Z" fill-rule="nonzero"/><path fill="#000000" fill-opacity="0.0" clip-path="url(#id_0)" d="M368.72354 264.8407C368.72354 266.49756 367.38037 267.8407 365.72354 267.8407C364.06668 267.8407 362.72354 266.49756 362.72354 264.8407C362.72354 263.18384 364.06668 261.8407 365.72354 261.8407C367.38037 261.8407 368.72354 263.18384 368.72354 264.8407Z" fill-rule="nonzero"/><path fill="#000000" fill-opacity="0.0" clip-path="url(#id_0)" d="M409.11176 261.98767C409.11176 263.64453 407.76862 264.98767 406.11176 264.98767C404.45493 264.98767 403.11176 263.64453 403.11176 261.98767C403.11176 260.3308 404.45493 258.98767 406.11176 258.98767C407.76862 258.98767 409.11176 260.3308 409.11176 261.98767Z" fill-rule="nonzero"/><path fill="#000000" fill-opacity="0.0" clip-path="url(#id_0)" d="M449.5 259.7172C449.5 261.37405 448.15686 262.7172 446.5 262.7172C444.84314 262.7172 443.5 261.37405 443.5 259.7172C443.5 258.06033 444.84314 256.7172 446.5 256.7172C448.15686 256.7172 449.5 258.06033 449.5 259.7172Z" fill-rule="nonzero"/><path fill="#000000" fill-opacity="0.0" clip-path="url(#id_0)" d="M489.88824 256.80545C489.88824 258.4623 488.54507 259.80545 486.88824 259.80545C485.23138 259.80545 483.88824 258.4623 483.88824 256.80545C483.88824 255.1486 485.23138 253.80547 486.88824 253.80547C488.54507 253.80547 489.88824 255.1486 489.88824 256.80545Z" fill-rule="nonzero"/><path fill="#000000" fill-opacity="0.0" clip-path="url(#id_0)" d="M530.2765 252.62273C530.2765 254.27959 528.93335 255.62273 527.2765 255.62273C525.6196 255.62273 524.2765 254.27959 524.2765 252.62273C524.2765 250.96588 525.6196 249.62273 527.2765 249.62273C528.93335 249.62273 530.2765 250.96588 530.2765 252.62273Z" fill-rule="nonzero"/><path fill="#000000" fill-opacity="0.0" clip-path="url(#id_0)" d="M570.66473 249.98692C570.66473 251.64377 569.32153 252.98692 567.66473 252.98692C566.0079 252.98692 564.66473 251.64377 564.66473 249.98692C564.66473 248.33006 566.0079 246.98692 567.66473 246.98692C569.32153 246.98692 570.66473 248.33006 570.66473 249.98692Z" fill-rule="nonzero"/><path fill="#000000" fill-opacity="0.0" clip-path="url(#id_0)" d="M611.0529 248.00444C611.0529 249.6613 609.7098 251.00444 608.0529 251.00444C606.39606 251.00444 605.0529 249.6613 605.0529 248.00444C605.0529 246.34758 606.39606 245.00444 608.0529 245.00444C609.7098 245.00444 611.0529 246.34758 611.0529 248.00444Z" fill-rule="nonzero"/><path fill="#000000" fill-opacity="0.0" clip-path="url(#id_0)" d="M651.44116 244.19307C651.44116 245.84993 650.098 247.19307 648.44116 247.19307C646.7843 247.19307 645.44116 245.84993 645.44116 244.19307C645.44116 242.53622 646.7843 241.19307 648.44116 241.19307C650.098 241.19307 651.44116 242.53622 651.44116 244.19307Z" fill-rule="nonzero"/><path fill="#000000" fill-opacity="0.0" clip-path="url(#id_0)" d="M691.8294 250.68468C691.8294 252.34154 690.48627 253.68468 688.8294 253.68468C687.17255 253.68468 685.8294 252.34154 685.8294 250.68468C685.8294 249.02783 687.17255 247.68468 688.8294 247.68468C690.48627 247.68468 691.8294 249.02783 691.8294 250.68468Z" fill-rule="nonzero"/><path fill="#000000" fill-opacity="0.0" clip-path="url(#id_0)" d="M732.21765 257.3266C732.21765 258.98346 730.8745 260.3266 729.21765 260.3266C727.5608 260.3266 726.21765 258.98346 726.21765 257.3266C726.21765 255.66974 727.5608 254.3266 729.21765 254.3266C730.8745 254.3266 732.21765 255.66974 732.21765 257.3266Z" fill-rule="nonzero"/><path fill="#000000" fill-opacity="0.0" clip-path="url(#id_0)" d="M772.6059 243.04166C772.6059 244.69852 771.26276 246.04166 769.6059 246.04166C767.94904 246.04166 766.6059 244.69852 766.6059 243.04166C766.6059 241.3848 767.94904 240.04166 769.6059 240.04166C771.26276 240.04166 772.6059 241.3848 772.6059 243.04166Z" fill-rule="nonzero"/><path fill="#000000" d="M425.375 437.8L422.04688 429.20624L423.28125 429.20624L425.51562 435.45624Q425.78125 436.20624 425.96875 436.8625Q426.17188 436.15936 426.4375 435.45624L428.75 429.20624L429.90625 429.20624L426.54688 437.8L425.375 437.8ZM434.04688 435.8L435.14062 435.925Q434.89062 436.8781 434.1875 437.40936Q433.48438 437.9406 432.40625 437.9406Q431.04688 437.9406 430.23438 437.09686Q429.4375 436.2531 429.4375 434.7375Q429.4375 433.175 430.25 432.3156Q431.0625 431.4406 432.34375 431.4406Q433.59375 431.4406 434.375 432.28436Q435.17188 433.1281 435.17188 434.675Q435.17188 434.76874 435.17188 434.95624L430.53125 434.95624Q430.59375 435.9875 431.10938 436.53436Q431.625 437.0656 432.40625 437.0656Q432.98438 437.0656 433.39062 436.76874Q433.8125 436.45624 434.04688 435.8ZM430.59375 434.09686L434.0625 434.09686Q434.0 433.3 433.67188 432.90936Q433.15625 432.3 432.35938 432.3Q431.625 432.3 431.125 432.78436Q430.64062 433.26874 430.59375 434.09686ZM436.78125 437.8L436.78125 431.58124L437.73438 431.58124L437.73438 432.51874Q438.09375 431.8625 438.39062 431.65936Q438.70312 431.4406 439.07812 431.4406Q439.60938 431.4406 440.15625 431.76874L439.79688 432.7531Q439.40625 432.51874 439.03125 432.51874Q438.67188 432.51874 438.39062 432.7375Q438.125 432.9406 438.01562 433.3156Q437.82812 433.8781 437.82812 434.53436L437.82812 437.8L436.78125 437.8ZM440.375 435.9406L441.40625 435.78436Q441.5 436.40936 441.89062 436.7375Q442.29688 437.0656 443.03125 437.0656Q443.75 437.0656 444.09375 436.78436Q444.45312 436.4875 444.45312 436.08124Q444.45312 435.72186 444.14062 435.51874Q443.92188 435.3781 443.0625 435.15936Q441.90625 434.8625 441.45312 434.65936Q441.01562 434.4406 440.78125 434.0656Q440.54688 433.6906 440.54688 433.22186Q440.54688 432.8156 440.73438 432.45624Q440.92188 432.09686 441.25 431.8625Q441.5 431.6906 441.92188 431.5656Q442.34375 431.4406 442.84375 431.4406Q443.5625 431.4406 444.10938 431.65936Q444.67188 431.8625 444.9375 432.22186Q445.20312 432.58124 445.29688 433.175L444.26562 433.3156Q444.20312 432.84686 443.85938 432.58124Q443.53125 432.3 442.90625 432.3Q442.1875 432.3 441.875 432.55Q441.5625 432.78436 441.5625 433.1125Q441.5625 433.3156 441.6875 433.47186Q441.82812 433.64374 442.09375 433.7531Q442.25 433.8156 443.03125 434.01874Q444.15625 434.33124 444.59375 434.51874Q445.03125 434.70624 445.28125 435.0656Q445.53125 435.425 445.53125 435.97186Q445.53125 436.5031 445.21875 436.97186Q444.92188 437.425 444.34375 437.6906Q443.76562 437.9406 443.03125 437.9406Q441.8125 437.9406 441.17188 437.4406Q440.54688 436.925 440.375 435.9406ZM447.79688 430.425L447.79688 429.20624L448.85938 429.20624L448.85938 430.425L447.79688 430.425ZM447.79688 437.8L447.79688 431.58124L448.85938 431.58124L448.85938 437.8L447.79688 437.8ZM450.40625 434.6906Q450.40625 432.95624 451.35938 432.1281Q452.15625 431.4406 453.3125 431.4406Q454.59375 431.4406 455.40625 432.28436Q456.23438 433.1125 456.23438 434.59686Q456.23438 435.8 455.875 436.4875Q455.51562 437.175 454.8125 437.5656Q454.125 437.9406 453.3125 437.9406Q452.01562 437.9406 451.20312 437.1125Q450.40625 436.26874 450.40625 434.6906ZM451.48438 434.6906Q451.48438 435.8781 452.0 436.47186Q452.53125 437.0656 453.3125 437.0656Q454.10938 437.0656 454.625 436.47186Q455.14062 435.8781 455.14062 434.65936Q455.14062 433.5031 454.60938 432.90936Q454.09375 432.3156 453.3125 432.3156Q452.53125 432.3156 452.0 432.90936Q451.48438 433.4875 451.48438 434.6906ZM457.79688 437.8L457.79688 431.58124L458.73438 431.58124L458.73438 432.45624Q459.42188 431.4406 460.71875 431.4406Q461.28125 431.4406 461.75 431.64374Q462.23438 431.84686 462.46875 432.175Q462.70312 432.5031 462.79688 432.9406Q462.84375 433.2375 462.84375 433.97186L462.84375 437.8L461.79688 437.8L461.79688 434.01874Q461.79688 433.3625 461.67188 433.05Q461.54688 432.7375 461.23438 432.55Q460.92188 432.34686 460.5 432.34686Q459.82812 432.34686 459.32812 432.78436Q458.84375 433.20624 458.84375 434.39374L458.84375 437.8L457.79688 437.8ZM464.375 435.9406L465.40625 435.78436Q465.5 436.40936 465.89062 436.7375Q466.29688 437.0656 467.03125 437.0656Q467.75 437.0656 468.09375 436.78436Q468.45312 436.4875 468.45312 436.08124Q468.45312 435.72186 468.14062 435.51874Q467.92188 435.3781 467.0625 435.15936Q465.90625 434.8625 465.45312 434.65936Q465.01562 434.4406 464.78125 434.0656Q464.54688 433.6906 464.54688 433.22186Q464.54688 432.8156 464.73438 432.45624Q464.92188 432.09686 465.25 431.8625Q465.5 431.6906 465.92188 431.5656Q466.34375 431.4406 466.84375 431.4406Q467.5625 431.4406 468.10938 431.65936Q468.67188 431.8625 468.9375 432.22186Q469.20312 432.58124 469.29688 433.175L468.26562 433.3156Q468.20312 432.84686 467.85938 432.58124Q467.53125 432.3 466.90625 432.3Q466.1875 432.3 465.875 432.55Q465.5625 432.78436 465.5625 433.1125Q465.5625 433.3156 465.6875 433.47186Q465.82812 433.64374 466.09375 433.7531Q466.25 433.8156 467.03125 434.01874Q468.15625 434.33124 468.59375 434.51874Q469.03125 434.70624 469.28125 435.0656Q469.53125 435.425 469.53125 435.97186Q469.53125 436.5031 469.21875 436.97186Q468.92188 437.425 468.34375 437.6906Q467.76562 437.9406 467.03125 437.9406Q465.8125 437.9406 465.17188 437.4406Q464.54688 436.925 464.375 435.9406Z" fill-rule="nonzero"/><path fill="#000000" d="M34.19999 268.35834L25.606237 268.35834L25.606237 267.2177L33.184364 267.2177L33.184364 262.98334L34.19999 262.98334L34.19999 268.35834ZM26.824987 261.43646L25.606237 261.43646L25.606237 260.37396L26.824987 260.37396L26.824987 261.43646ZM34.19999 261.43646L27.981237 261.43646L27.981237 260.37396L34.19999 260.37396L34.19999 261.43646ZM34.19999 258.43646L27.981237 258.43646L27.981237 257.49896L28.856237 257.49896Q27.840612 256.81146 27.840612 255.51459Q27.840612 254.95209 28.043737 254.48334Q28.246862 253.99896 28.574987 253.76459Q28.903112 253.53021 29.340612 253.43646Q29.637487 253.38959 30.371862 253.38959L34.19999 253.38959L34.19999 254.43646L30.418737 254.43646Q29.762487 254.43646 29.449987 254.56146Q29.137487 254.68646 28.949987 254.99896Q28.746862 255.31146 28.746862 255.73334Q28.746862 256.4052 29.184362 256.9052Q29.606237 257.3896 30.793737 257.3896L34.19999 257.3896L34.19999 258.43646ZM32.19999 247.18646L32.32499 246.09271Q33.278114 246.34271 33.809364 247.04584Q34.340614 247.74896 34.340614 248.82709Q34.340614 250.18646 33.496864 250.99896Q32.653114 251.79584 31.137487 251.79584Q29.574987 251.79584 28.715612 250.98334Q27.840612 250.17084 27.840612 248.88959Q27.840612 247.63959 28.684362 246.85834Q29.528112 246.06146 31.074987 246.06146Q31.168737 246.06146 31.356237 246.06146L31.356237 250.70209Q32.38749 250.63959 32.934364 250.12396Q33.465614 249.60834 33.465614 248.82709Q33.465614 248.24896 33.16874 247.84271Q32.85624 247.42084 32.19999 247.18646ZM30.496862 250.63959L30.496862 247.17084Q29.699987 247.23334 29.309362 247.56146Q28.699987 248.07709 28.699987 248.87396Q28.699987 249.60834 29.184362 250.10834Q29.668737 250.59271 30.496862 250.63959ZM32.340614 244.85834L32.184364 243.82709Q32.809364 243.73334 33.13749 243.34271Q33.465614 242.93646 33.465614 242.20209Q33.465614 241.48334 33.184364 241.13959Q32.88749 240.78021 32.48124 240.78021Q32.121864 240.78021 31.918737 241.09271Q31.778112 241.31146 31.559362 242.17084Q31.262487 243.32709 31.059362 243.78021Q30.840612 244.21771 30.465612 244.45209Q30.090612 244.68646 29.621862 244.68646Q29.215612 244.68646 28.856237 244.49896Q28.496862 244.31146 28.262487 243.98334Q28.090612 243.73334 27.965612 243.31146Q27.840612 242.88959 27.840612 242.38959Q27.840612 241.67084 28.059362 241.12396Q28.262487 240.56146 28.621862 240.29584Q28.981237 240.03021 29.574987 239.93646L29.715612 240.96771Q29.246862 241.03021 28.981237 241.37396Q28.699987 241.70209 28.699987 242.32709Q28.699987 243.04584 28.949987 243.35834Q29.184362 243.67084 29.512487 243.67084Q29.715612 243.67084 29.871862 243.54584Q30.043737 243.40521 30.153112 243.13959Q30.215612 242.98334 30.418737 242.20209Q30.731237 241.07709 30.918737 240.63959Q31.106237 240.20209 31.465612 239.95209Q31.824987 239.70209 32.371864 239.70209Q32.903114 239.70209 33.371864 240.01459Q33.82499 240.31146 34.090614 240.88959Q34.340614 241.46771 34.340614 242.20209Q34.340614 243.42084 33.840614 244.06146Q33.32499 244.68646 32.340614 244.85834ZM31.090612 234.82709Q29.356237 234.82709 28.528112 233.87396Q27.840612 233.07709 27.840612 231.92084Q27.840612 230.63959 28.684362 229.82709Q29.512487 228.99896 30.996862 228.99896Q32.19999 228.99896 32.88749 229.35834Q33.57499 229.71771 33.965614 230.42084Q34.340614 231.10834 34.340614 231.92084Q34.340614 233.21771 33.51249 234.03021Q32.66874 234.82709 31.090612 234.82709ZM31.090612 233.74896Q32.278114 233.74896 32.871864 233.23334Q33.465614 232.70209 33.465614 231.92084Q33.465614 231.12396 32.871864 230.60834Q32.278114 230.09271 31.059362 230.09271Q29.903112 230.09271 29.309362 230.62396Q28.715612 231.13959 28.715612 231.92084Q28.715612 232.70209 29.309362 233.23334Q29.887487 233.74896 31.090612 233.74896ZM34.19999 227.18646L28.793737 227.18646L28.793737 228.12396L27.981237 228.12396L27.981237 227.18646L27.309362 227.18646Q26.684362 227.18646 26.387487 227.07709Q25.965612 226.92084 25.715612 226.54584Q25.465612 226.15521 25.465612 225.46771Q25.465612 225.01459 25.574987 224.48334L26.481237 224.63959Q26.434362 224.96771 26.434362 225.26459Q26.434362 225.74896 26.637487 225.95209Q26.840612 226.13959 27.403112 226.13959L27.981237 226.13959L27.981237 224.92084L28.793737 224.92084L28.793737 226.13959L34.19999 226.13959L34.19999 227.18646ZM31.184362 215.17084L31.481237 214.04584Q32.871864 214.40521 33.60624 215.32709Q34.340614 216.24896 34.340614 217.59271Q34.340614 218.98334 33.778114 219.85834Q33.215614 220.73334 32.153114 221.18646Q31.074987 221.63959 29.840612 221.63959Q28.496862 221.63959 27.496862 221.12396Q26.496862 220.60834 25.981237 219.67084Q25.465612 218.71771 25.465612 217.57709Q25.465612 216.29584 26.121862 215.42084Q26.778112 214.53021 27.965612 214.18646L28.231237 215.31146Q27.293737 215.60834 26.871862 216.18646Q26.434362 216.74896 26.434362 217.60834Q26.434362 218.59271 26.918737 219.26459Q27.387487 219.92084 28.184362 220.20209Q28.981237 220.46771 29.840612 220.46771Q30.934362 220.46771 31.746862 220.15521Q32.559364 219.82709 32.965614 219.15521Q33.371864 218.48334 33.371864 217.68646Q33.371864 216.73334 32.82499 216.07709Q32.278114 215.40521 31.184362 215.17084ZM31.090612 212.82709Q29.356237 212.82709 28.528112 211.87396Q27.840612 211.07709 27.840612 209.92084Q27.840612 208.63959 28.684362 207.82709Q29.512487 206.99896 30.996862 206.99896Q32.19999 206.99896 32.88749 207.35834Q33.57499 207.71771 33.965614 208.42084Q34.340614 209.10834 34.340614 209.92084Q34.340614 211.21771 33.51249 212.03021Q32.66874 212.82709 31.090612 212.82709ZM31.090612 211.74896Q32.278114 211.74896 32.871864 211.23334Q33.465614 210.70209 33.465614 209.92084Q33.465614 209.12396 32.871864 208.60834Q32.278114 208.09271 31.059362 208.09271Q29.903112 208.09271 29.309362 208.62396Q28.715612 209.13959 28.715612 209.92084Q28.715612 210.70209 29.309362 211.23334Q29.887487 211.74896 31.090612 211.74896ZM34.19999 201.40521L33.41874 201.40521Q34.340614 201.99896 34.340614 203.13959Q34.340614 203.88959 33.934364 204.51459Q33.51249 205.13959 32.778114 205.48334Q32.04374 205.82709 31.090612 205.82709Q30.168737 205.82709 29.403112 205.51459Q28.637487 205.20209 28.246862 204.57709Q27.840612 203.95209 27.840612 203.18646Q27.840612 202.62396 28.074987 202.18646Q28.309362 201.74896 28.684362 201.46771L25.606237 201.46771L25.606237 200.42084L34.19999 200.42084L34.19999 201.40521ZM31.090612 204.73334Q32.29374 204.73334 32.88749 204.23334Q33.465614 203.73334 33.465614 203.04584Q33.465614 202.35834 32.903114 201.87396Q32.340614 201.38959 31.184362 201.38959Q29.903112 201.38959 29.309362 201.88959Q28.715612 202.37396 28.715612 203.09271Q28.715612 203.79584 29.293737 204.26459Q29.856237 204.73334 31.090612 204.73334ZM32.19999 194.18646L32.32499 193.09271Q33.278114 193.34271 33.809364 194.04584Q34.340614 194.74896 34.340614 195.82709Q34.340614 197.18646 33.496864 197.99896Q32.653114 198.79584 31.137487 198.79584Q29.574987 198.79584 28.715612 197.98334Q27.840612 197.17084 27.840612 195.88959Q27.840612 194.63959 28.684362 193.85834Q29.528112 193.06146 31.074987 193.06146Q31.168737 193.06146 31.356237 193.06146L31.356237 197.70209Q32.38749 197.63959 32.934364 197.12396Q33.465614 196.60834 33.465614 195.82709Q33.465614 195.24896 33.16874 194.84271Q32.85624 194.42084 32.19999 194.18646ZM30.496862 197.63959L30.496862 194.17084Q29.699987 194.23334 29.309362 194.56146Q28.699987 195.07709 28.699987 195.87396Q28.699987 196.60834 29.184362 197.10834Q29.668737 197.59271 30.496862 197.63959Z" fill-rule="nonzero"/><path fill="#000000" d="M90.7 388.5656Q90.7 387.03436 91.0125 386.1125Q91.325 385.175 91.93437 384.675Q92.55937 384.175 93.49687 384.175Q94.18437 384.175 94.7 384.45624Q95.23125 384.7375 95.575 385.26874Q95.91875 385.78436 96.10625 386.53436Q96.29375 387.28436 96.29375 388.5656Q96.29375 390.08124 95.98125 391.0031Q95.68437 391.925 95.05937 392.4406Q94.45 392.9406 93.49687 392.9406Q92.2625 392.9406 91.54375 392.05Q90.7 390.9875 90.7 388.5656ZM91.77812 388.5656Q91.77812 390.675 92.27812 391.3781Q92.77812 392.08124 93.49687 392.08124Q94.23125 392.08124 94.71562 391.3781Q95.21562 390.675 95.21562 388.5656Q95.21562 386.4406 94.71562 385.7531Q94.23125 385.05 93.48125 385.05Q92.7625 385.05 92.325 385.65936Q91.77812 386.4406 91.77812 388.5656Z" fill-rule="nonzero"/><path fill="#000000" d="M61.246876 282.07327L61.246876 283.0889L55.559376 283.0889Q55.559376 282.7139 55.684376 282.35452Q55.903126 281.7764 56.371876 281.2139Q56.85625 280.6514 57.7625 279.91702Q59.16875 278.76077 59.653126 278.0889Q60.153126 277.41702 60.153126 276.82327Q60.153126 276.19827 59.7 275.7764Q59.246876 275.3389 58.528126 275.3389Q57.7625 275.3389 57.309376 275.79202Q56.85625 276.24515 56.840626 277.05765L55.7625 276.94827Q55.871876 275.72952 56.590626 275.10452Q57.325 274.4639 58.559376 274.4639Q59.79375 274.4639 60.5125 275.1514Q61.23125 275.8389 61.23125 276.85452Q61.23125 277.37015 61.0125 277.87015Q60.809376 278.35452 60.309376 278.91702Q59.825 279.4639 58.7 280.41702Q57.746876 281.2139 57.465626 281.51077Q57.2 281.79202 57.028126 282.07327L61.246876 282.07327ZM62.7 278.85452Q62.7 277.32327 63.0125 276.4014Q63.325 275.4639 63.934376 274.9639Q64.55937 274.4639 65.49687 274.4639Q66.18437 274.4639 66.7 274.74515Q67.23125 275.0264 67.575 275.55765Q67.91875 276.07327 68.10625 276.82327Q68.29375 277.57327 68.29375 278.85452Q68.29375 280.37015 67.98125 281.29202Q67.68437 282.2139 67.05937 282.72952Q66.45 283.22952 65.49687 283.22952Q64.2625 283.22952 63.54375 282.3389Q62.7 281.2764 62.7 278.85452ZM63.778126 278.85452Q63.778126 280.9639 64.27812 281.66702Q64.77812 282.37015 65.49687 282.37015Q66.23125 282.37015 66.71562 281.66702Q67.21562 280.9639 67.21562 278.85452Q67.21562 276.72952 66.71562 276.04202Q66.23125 275.3389 65.48125 275.3389Q64.7625 275.3389 64.325 275.94827Q63.778126 276.72952 63.778126 278.85452ZM69.7 278.85452Q69.7 277.32327 70.0125 276.4014Q70.325 275.4639 70.93437 274.9639Q71.55937 274.4639 72.49687 274.4639Q73.18437 274.4639 73.7 274.74515Q74.23125 275.0264 74.575 275.55765Q74.91875 276.07327 75.10625 276.82327Q75.29375 277.57327 75.29375 278.85452Q75.29375 280.37015 74.98125 281.29202Q74.68437 282.2139 74.05937 282.72952Q73.45 283.22952 72.49687 283.22952Q71.2625 283.22952 70.54375 282.3389Q69.7 281.2764 69.7 278.85452ZM70.77812 278.85452Q70.77812 280.9639 71.27812 281.66702Q71.77812 282.37015 72.49687 282.37015Q73.23125 282.37015 73.71562 281.66702Q74.21562 280.9639 74.21562 278.85452Q74.21562 276.72952 73.71562 276.04202Q73.23125 275.3389 72.48125 275.3389Q71.7625 275.3389 71.325 275.94827Q70.77812 276.72952 70.77812 278.85452ZM76.7 278.85452Q76.7 277.32327 77.0125 276.4014Q77.325 275.4639 77.93437 274.9639Q78.55937 274.4639 79.49687 274.4639Q80.18437 274.4639 80.7 274.74515Q81.23125 275.0264 81.575 275.55765Q81.91875 276.07327 82.10625 276.82327Q82.29375 277.57327 82.29375 278.85452Q82.29375 280.37015 81.98125 281.29202Q81.68437 282.2139 81.05937 282.72952Q80.45 283.22952 79.49687 283.22952Q78.2625 283.22952 77.54375 282.3389Q76.7 281.2764 76.7 278.85452ZM77.77812 278.85452Q77.77812 280.9639 78.27812 281.66702Q78.77812 282.37015 79.49687 282.37015Q80.23125 282.37015 80.71562 281.66702Q81.21562 280.9639 81.21562 278.85452Q81.21562 276.72952 80.71562 276.04202Q80.23125 275.3389 79.48125 275.3389Q78.7625 275.3389 78.325 275.94827Q77.77812 276.72952 77.77812 278.85452ZM83.7 278.85452Q83.7 277.32327 84.0125 276.4014Q84.325 275.4639 84.93437 274.9639Q85.55937 274.4639 86.49687 274.4639Q87.18437 274.4639 87.7 274.74515Q88.23125 275.0264 88.575 275.55765Q88.91875 276.07327 89.10625 276.82327Q89.29375 277.57327 89.29375 278.85452Q89.29375 280.37015 88.98125 281.29202Q88.68437 282.2139 88.05937 282.72952Q87.45 283.22952 86.49687 283.22952Q85.2625 283.22952 84.54375 282.3389Q83.7 281.2764 83.7 278.85452ZM84.77812 278.85452Q84.77812 280.9639 85.27812 281.66702Q85.77812 282.37015 86.49687 282.37015Q87.23125 282.37015 87.71562 281.66702Q88.21562 280.9639 88.21562 278.85452Q88.21562 276.72952 87.71562 276.04202Q87.23125 275.3389 86.48125 275.3389Q85.7625 275.3389 85.325 275.94827Q84.77812 276.72952 84.77812 278.85452ZM90.7 278.85452Q90.7 277.32327 91.0125 276.4014Q91.325 275.4639 91.93437 274.9639Q92.55937 274.4639 93.49687 274.4639Q94.18437 274.4639 94.7 274.74515Q95.23125 275.0264 95.575 275.55765Q95.91875 276.07327 96.10625 276.82327Q96.29375 277.57327 96.29375 278.85452Q96.29375 280.37015 95.98125 281.29202Q95.68437 282.2139 95.05937 282.72952Q94.45 283.22952 93.49687 283.22952Q92.2625 283.22952 91.54375 282.3389Q90.7 281.2764 90.7 278.85452ZM91.77812 278.85452Q91.77812 280.9639 92.27812 281.66702Q92.77812 282.37015 93.49687 282.37015Q94.23125 282.37015 94.71562 281.66702Q95.21562 280.9639 95.21562 278.85452Q95.21562 276.72952 94.71562 276.04202Q94.23125 275.3389 93.48125 275.3389Q92.7625 275.3389 92.325 275.94827Q91.77812 276.72952 91.77812 278.85452Z" fill-rule="nonzero"/><path fill="#000000" d="M59.075 173.37778L59.075 171.31528L55.35625 171.31528L55.35625 170.34653L59.278126 164.78403L60.1375 164.78403L60.1375 170.34653L61.29375 170.34653L61.29375 171.31528L60.1375 171.31528L60.1375 173.37778L59.075 173.37778ZM59.075 170.34653L59.075 166.48715L56.3875 170.34653L59.075 170.34653ZM62.7 169.1434Q62.7 167.61215 63.0125 166.69028Q63.325 165.75278 63.934376 165.25278Q64.55937 164.75278 65.49687 164.75278Q66.18437 164.75278 66.7 165.03403Q67.23125 165.31528 67.575 165.84653Q67.91875 166.36215 68.10625 167.11215Q68.29375 167.86215 68.29375 169.1434Q68.29375 170.65903 67.98125 171.5809Q67.68437 172.50278 67.05937 173.0184Q66.45 173.5184 65.49687 173.5184Q64.2625 173.5184 63.54375 172.62778Q62.7 171.56528 62.7 169.1434ZM63.778126 169.1434Q63.778126 171.25278 64.27812 171.9559Q64.77812 172.65903 65.49687 172.65903Q66.23125 172.65903 66.71562 171.9559Q67.21562 171.25278 67.21562 169.1434Q67.21562 167.0184 66.71562 166.3309Q66.23125 165.62778 65.48125 165.62778Q64.7625 165.62778 64.325 166.23715Q63.778126 167.0184 63.778126 169.1434ZM69.7 169.1434Q69.7 167.61215 70.0125 166.69028Q70.325 165.75278 70.93437 165.25278Q71.55937 164.75278 72.49687 164.75278Q73.18437 164.75278 73.7 165.03403Q74.23125 165.31528 74.575 165.84653Q74.91875 166.36215 75.10625 167.11215Q75.29375 167.86215 75.29375 169.1434Q75.29375 170.65903 74.98125 171.5809Q74.68437 172.50278 74.05937 173.0184Q73.45 173.5184 72.49687 173.5184Q71.2625 173.5184 70.54375 172.62778Q69.7 171.56528 69.7 169.1434ZM70.77812 169.1434Q70.77812 171.25278 71.27812 171.9559Q71.77812 172.65903 72.49687 172.65903Q73.23125 172.65903 73.71562 171.9559Q74.21562 171.25278 74.21562 169.1434Q74.21562 167.0184 73.71562 166.3309Q73.23125 165.62778 72.48125 165.62778Q71.7625 165.62778 71.325 166.23715Q70.77812 167.0184 70.77812 169.1434ZM76.7 169.1434Q76.7 167.61215 77.0125 166.69028Q77.325 165.75278 77.93437 165.25278Q78.55937 164.75278 79.49687 164.75278Q80.18437 164.75278 80.7 165.03403Q81.23125 165.31528 81.575 165.84653Q81.91875 166.36215 82.10625 167.11215Q82.29375 167.86215 82.29375 169.1434Q82.29375 170.65903 81.98125 171.5809Q81.68437 172.50278 81.05937 173.0184Q80.45 173.5184 79.49687 173.5184Q78.2625 173.5184 77.54375 172.62778Q76.7 171.56528 76.7 169.1434ZM77.77812 169.1434Q77.77812 171.25278 78.27812 171.9559Q78.77812 172.65903 79.49687 172.65903Q80.23125 172.65903 80.71562 171.9559Q81.21562 171.25278 81.21562 169.1434Q81.21562 167.0184 80.71562 166.3309Q80.23125 165.62778 79.48125 165.62778Q78.7625 165.62778 78.325 166.23715Q77.77812 167.0184 77.77812 169.1434ZM83.7 169.1434Q83.7 167.61215 84.0125 166.69028Q84.325 165.75278 84.93437 165.25278Q85.55937 164.75278 86.49687 164.75278Q87.18437 164.75278 87.7 165.03403Q88.23125 165.31528 88.575 165.84653Q88.91875 166.36215 89.10625 167.11215Q89.29375 167.86215 89.29375 169.1434Q89.29375 170.65903 88.98125 171.5809Q88.68437 172.50278 88.05937 173.0184Q87.45 173.5184 86.49687 173.5184Q85.2625 173.5184 84.54375 172.62778Q83.7 171.56528 83.7 169.1434ZM84.77812 169.1434Q84.77812 171.25278 85.27812 171.9559Q85.77812 172.65903 86.49687 172.65903Q87.23125 172.65903 87.71562 171.9559Q88.21562 171.25278 88.21562 169.1434Q88.21562 167.0184 87.71562 166.3309Q87.23125 165.62778 86.48125 165.62778Q85.7625 165.62778 85.325 166.23715Q84.77812 167.0184 84.77812 169.1434ZM90.7 169.1434Q90.7 167.61215 91.0125 166.69028Q91.325 165.75278 91.93437 165.25278Q92.55937 164.75278 93.49687 164.75278Q94.18437 164.75278 94.7 165.03403Q95.23125 165.31528 95.575 165.84653Q95.91875 166.36215 96.10625 167.11215Q96.29375 167.86215 96.29375 169.1434Q96.29375 170.65903 95.98125 171.5809Q95.68437 172.50278 95.05937 173.0184Q94.45 173.5184 93.49687 173.5184Q92.2625 173.5184 91.54375 172.62778Q90.7 171.56528 90.7 169.1434ZM91.77812 169.1434Q91.77812 171.25278 92.27812 171.9559Q92.77812 172.65903 93.49687 172.65903Q94.23125 172.65903 94.71562 171.9559Q95.21562 171.25278 95.21562 169.1434Q95.21562 167.0184 94.71562 166.3309Q94.23125 165.62778 93.48125 165.62778Q92.7625 165.62778 92.325 166.23715Q91.77812 167.0184 91.77812 169.1434Z" fill-rule="nonzero"/><path fill="#000000" d="M61.16875 57.182293L60.121876 57.260418Q59.98125 56.635418 59.73125 56.354168Q59.29375 55.901043 58.66875 55.901043Q58.16875 55.901043 57.778126 56.182293Q57.29375 56.557293 56.996876 57.260418Q56.715626 57.947918 56.7 59.229168Q57.075 58.651043 57.621876 58.369793Q58.184376 58.088543 58.79375 58.088543Q59.840626 58.088543 60.575 58.869793Q61.325 59.651043 61.325 60.869793Q61.325 61.682293 60.965626 62.385418Q60.621876 63.072918 60.0125 63.447918Q59.403126 63.807293 58.6375 63.807293Q57.309376 63.807293 56.48125 62.838543Q55.653126 61.869793 55.653126 59.651043Q55.653126 57.151043 56.575 56.026043Q57.371876 55.041668 58.73125 55.041668Q59.746876 55.041668 60.3875 55.619793Q61.04375 56.182293 61.16875 57.182293ZM56.871876 60.885418Q56.871876 61.432293 57.090626 61.932293Q57.325 62.416668 57.73125 62.682293Q58.153126 62.947918 58.621876 62.947918Q59.278126 62.947918 59.7625 62.416668Q60.246876 61.869793 60.246876 60.947918Q60.246876 60.057293 59.7625 59.541668Q59.29375 59.026043 58.575 59.026043Q57.85625 59.026043 57.35625 59.541668Q56.871876 60.057293 56.871876 60.885418ZM62.7 59.432293Q62.7 57.901043 63.0125 56.979168Q63.325 56.041668 63.934376 55.541668Q64.55937 55.041668 65.49687 55.041668Q66.18437 55.041668 66.7 55.322918Q67.23125 55.604168 67.575 56.135418Q67.91875 56.651043 68.10625 57.401043Q68.29375 58.151043 68.29375 59.432293Q68.29375 60.947918 67.98125 61.869793Q67.68437 62.791668 67.05937 63.307293Q66.45 63.807293 65.49687 63.807293Q64.2625 63.807293 63.54375 62.916668Q62.7 61.854168 62.7 59.432293ZM63.778126 59.432293Q63.778126 61.541668 64.27812 62.244793Q64.77812 62.947918 65.49687 62.947918Q66.23125 62.947918 66.71562 62.244793Q67.21562 61.541668 67.21562 59.432293Q67.21562 57.307293 66.71562 56.619793Q66.23125 55.916668 65.48125 55.916668Q64.7625 55.916668 64.325 56.526043Q63.778126 57.307293 63.778126 59.432293ZM69.7 59.432293Q69.7 57.901043 70.0125 56.979168Q70.325 56.041668 70.93437 55.541668Q71.55937 55.041668 72.49687 55.041668Q73.18437 55.041668 73.7 55.322918Q74.23125 55.604168 74.575 56.135418Q74.91875 56.651043 75.10625 57.401043Q75.29375 58.151043 75.29375 59.432293Q75.29375 60.947918 74.98125 61.869793Q74.68437 62.791668 74.05937 63.307293Q73.45 63.807293 72.49687 63.807293Q71.2625 63.807293 70.54375 62.916668Q69.7 61.854168 69.7 59.432293ZM70.77812 59.432293Q70.77812 61.541668 71.27812 62.244793Q71.77812 62.947918 72.49687 62.947918Q73.23125 62.947918 73.71562 62.244793Q74.21562 61.541668 74.21562 59.432293Q74.21562 57.307293 73.71562 56.619793Q73.23125 55.916668 72.48125 55.916668Q71.7625 55.916668 71.325 56.526043Q70.77812 57.307293 70.77812 59.432293ZM76.7 59.432293Q76.7 57.901043 77.0125 56.979168Q77.325 56.041668 77.93437 55.541668Q78.55937 55.041668 79.49687 55.041668Q80.18437 55.041668 80.7 55.322918Q81.23125 55.604168 81.575 56.135418Q81.91875 56.651043 82.10625 57.401043Q82.29375 58.151043 82.29375 59.432293Q82.29375 60.947918 81.98125 61.869793Q81.68437 62.791668 81.05937 63.307293Q80.45 63.807293 79.49687 63.807293Q78.2625 63.807293 77.54375 62.916668Q76.7 61.854168 76.7 59.432293ZM77.77812 59.432293Q77.77812 61.541668 78.27812 62.244793Q78.77812 62.947918 79.49687 62.947918Q80.23125 62.947918 80.71562 62.244793Q81.21562 61.541668 81.21562 59.432293Q81.21562 57.307293 80.71562 56.619793Q80.23125 55.916668 79.48125 55.916668Q78.7625 55.916668 78.325 56.526043Q77.77812 57.307293 77.77812 59.432293ZM83.7 59.432293Q83.7 57.901043 84.0125 56.979168Q84.325 56.041668 84.93437 55.541668Q85.55937 55.041668 86.49687 55.041668Q87.18437 55.041668 87.7 55.322918Q88.23125 55.604168 88.575 56.135418Q88.91875 56.651043 89.10625 57.401043Q89.29375 58.151043 89.29375 59.432293Q89.29375 60.947918 88.98125 61.869793Q88.68437 62.791668 88.05937 63.307293Q87.45 63.807293 86.49687 63.807293Q85.2625 63.807293 84.54375 62.916668Q83.7 61.854168 83.7 59.432293ZM84.77812 59.432293Q84.77812 61.541668 85.27812 62.244793Q85.77812 62.947918 86.49687 62.947918Q87.23125 62.947918 87.71562 62.244793Q88.21562 61.541668 88.21562 59.432293Q88.21562 57.307293 87.71562 56.619793Q87.23125 55.916668 86.48125 55.916668Q85.7625 55.916668 85.325 56.526043Q84.77812 57.307293 84.77812 59.432293ZM90.7 59.432293Q90.7 57.901043 91.0125 56.979168Q91.325 56.041668 91.93437 55.541668Q92.55937 55.041668 93.49687 55.041668Q94.18437 55.041668 94.7 55.322918Q95.23125 55.604168 95.575 56.135418Q95.91875 56.651043 96.10625 57.401043Q96.29375 58.151043 96.29375 59.432293Q96.29375 60.947918 95.98125 61.869793Q95.68437 62.791668 95.05937 63.307293Q94.45 63.807293 93.49687 63.807293Q92.2625 63.807293 91.54375 62.916668Q90.7 61.854168 90.7 59.432293ZM91.77812 59.432293Q91.77812 61.541668 92.27812 62.244793Q92.77812 62.947918 93.49687 62.947918Q94.23125 62.947918 94.71562 62.244793Q95.21562 61.541668 95.21562 59.432293Q95.21562 57.307293 94.71562 56.619793Q94.23125 55.916668 93.48125 55.916668Q92.7625 55.916668 92.325 56.526043Q91.77812 57.307293 91.77812 59.432293Z" fill-rule="nonzero"/><path fill="#000000" d="M110.39412 401.5656Q110.39412 400.03436 110.70662 399.1125Q111.01912 398.175 111.628494 397.675Q112.253494 397.175 113.190994 397.175Q113.878494 397.175 114.39412 397.45624Q114.92537 397.7375 115.26912 398.26874Q115.61287 398.78436 115.80037 399.53436Q115.98787 400.28436 115.98787 401.5656Q115.98787 403.08124 115.67537 404.0031Q115.378494 404.925 114.753494 405.4406Q114.14412 405.9406 113.190994 405.9406Q111.95662 405.9406 111.23787 405.05Q110.39412 403.9875 110.39412 401.5656ZM111.472244 401.5656Q111.472244 403.675 111.972244 404.3781Q112.472244 405.08124 113.190994 405.08124Q113.92537 405.08124 114.409744 404.3781Q114.909744 403.675 114.909744 401.5656Q114.909744 399.4406 114.409744 398.7531Q113.92537 398.05 113.17537 398.05Q112.45662 398.05 112.01912 398.65936Q111.472244 399.4406 111.472244 401.5656ZM117.98787 405.8L117.98787 404.59686L119.190994 404.59686L119.190994 405.8L117.98787 405.8ZM122.01912 401.14374Q121.36287 400.89374 121.034744 400.45624Q120.722244 400.0031 120.722244 399.39374Q120.722244 398.45624 121.39412 397.8156Q122.08162 397.175 123.190994 397.175Q124.315994 397.175 125.003494 397.83124Q125.690994 398.4875 125.690994 399.425Q125.690994 400.01874 125.378494 400.45624Q125.065994 400.89374 124.42537 401.14374Q125.222244 401.39374 125.628494 401.97186Q126.034744 402.55 126.034744 403.34686Q126.034744 404.4406 125.253494 405.1906Q124.48787 405.9406 123.20662 405.9406Q121.940994 405.9406 121.159744 405.1906Q120.378494 404.4406 120.378494 403.3156Q120.378494 402.47186 120.80037 401.90936Q121.23787 401.34686 122.01912 401.14374ZM121.80037 399.34686Q121.80037 399.95624 122.190994 400.34686Q122.597244 400.7375 123.222244 400.7375Q123.83162 400.7375 124.222244 400.3625Q124.61287 399.97186 124.61287 399.40936Q124.61287 398.83124 124.20662 398.4406Q123.80037 398.03436 123.20662 398.03436Q122.597244 398.03436 122.190994 398.425Q121.80037 398.8156 121.80037 399.34686ZM121.472244 403.3156Q121.472244 403.76874 121.67537 404.1906Q121.89412 404.6125 122.315994 404.84686Q122.73787 405.08124 123.222244 405.08124Q123.972244 405.08124 124.45662 404.59686Q124.95662 404.1125 124.95662 403.3625Q124.95662 402.59686 124.45662 402.09686Q123.95662 401.59686 123.190994 401.59686Q122.440994 401.59686 121.95662 402.09686Q121.472244 402.58124 121.472244 403.3156ZM127.98787 405.8L127.98787 404.59686L129.191 404.59686L129.191 405.8L127.98787 405.8ZM130.39412 401.5656Q130.39412 400.03436 130.70662 399.1125Q131.01912 398.175 131.6285 397.675Q132.2535 397.175 133.191 397.175Q133.8785 397.175 134.39412 397.45624Q134.92537 397.7375 135.26912 398.26874Q135.61287 398.78436 135.80037 399.53436Q135.98787 400.28436 135.98787 401.5656Q135.98787 403.08124 135.67537 404.0031Q135.3785 404.925 134.7535 405.4406Q134.14412 405.9406 133.191 405.9406Q131.95662 405.9406 131.23787 405.05Q130.39412 403.9875 130.39412 401.5656ZM131.47224 401.5656Q131.47224 403.675 131.97224 404.3781Q132.47224 405.08124 133.191 405.08124Q133.92537 405.08124 134.40974 404.3781Q134.90974 403.675 134.90974 401.5656Q134.90974 399.4406 134.40974 398.7531Q133.92537 398.05 133.17537 398.05Q132.45662 398.05 132.01912 398.65936Q131.47224 399.4406 131.47224 401.5656Z" fill-rule="nonzero"/><path fill="#000000" d="M150.78235 401.5656Q150.78235 400.03436 151.09485 399.1125Q151.40735 398.175 152.01672 397.675Q152.64172 397.175 153.57922 397.175Q154.26672 397.175 154.78235 397.45624Q155.3136 397.7375 155.65735 398.26874Q156.0011 398.78436 156.1886 399.53436Q156.3761 400.28436 156.3761 401.5656Q156.3761 403.08124 156.0636 404.0031Q155.76672 404.925 155.14172 405.4406Q154.53235 405.9406 153.57922 405.9406Q152.34485 405.9406 151.6261 405.05Q150.78235 403.9875 150.78235 401.5656ZM151.86047 401.5656Q151.86047 403.675 152.36047 404.3781Q152.86047 405.08124 153.57922 405.08124Q154.3136 405.08124 154.79797 404.3781Q155.29797 403.675 155.29797 401.5656Q155.29797 399.4406 154.79797 398.7531Q154.3136 398.05 153.5636 398.05Q152.84485 398.05 152.40735 398.65936Q151.86047 399.4406 151.86047 401.5656ZM158.3761 405.8L158.3761 404.59686L159.57922 404.59686L159.57922 405.8L158.3761 405.8ZM160.9386 403.8156L161.95422 403.72186Q162.07922 404.4406 162.4386 404.76874Q162.8136 405.08124 163.3761 405.08124Q163.86047 405.08124 164.21985 404.8625Q164.59485 404.6281 164.82922 404.26874Q165.0636 403.89374 165.21985 403.26874Q165.3761 402.6281 165.3761 401.97186Q165.3761 401.89374 165.3761 401.7531Q165.0636 402.2531 164.51672 402.58124Q163.96985 402.89374 163.32922 402.89374Q162.2511 402.89374 161.51672 402.1281Q160.78235 401.34686 160.78235 400.08124Q160.78235 398.76874 161.54797 397.97186Q162.32922 397.175 163.48547 397.175Q164.3136 397.175 165.0011 397.6281Q165.70422 398.08124 166.0636 398.925Q166.42297 399.7531 166.42297 401.33124Q166.42297 402.97186 166.0636 403.95624Q165.71985 404.925 165.0011 405.4406Q164.29797 405.9406 163.36047 405.9406Q162.34485 405.9406 161.70422 405.39374Q161.0636 404.83124 160.9386 403.8156ZM165.2511 400.01874Q165.2511 399.1125 164.76672 398.58124Q164.29797 398.05 163.61047 398.05Q162.90735 398.05 162.3761 398.6281Q161.86047 399.1906 161.86047 400.1125Q161.86047 400.925 162.36047 401.4406Q162.86047 401.95624 163.57922 401.95624Q164.3136 401.95624 164.78235 401.4406Q165.2511 400.925 165.2511 400.01874ZM168.3761 405.8L168.3761 404.59686L169.57922 404.59686L169.57922 405.8L168.3761 405.8ZM170.78235 401.5656Q170.78235 400.03436 171.09485 399.1125Q171.40735 398.175 172.01672 397.675Q172.64172 397.175 173.57922 397.175Q174.26672 397.175 174.78235 397.45624Q175.3136 397.7375 175.65735 398.26874Q176.0011 398.78436 176.1886 399.53436Q176.3761 400.28436 176.3761 401.5656Q176.3761 403.08124 176.0636 404.0031Q175.76672 404.925 175.14172 405.4406Q174.53235 405.9406 173.57922 405.9406Q172.34485 405.9406 171.6261 405.05Q170.78235 403.9875 170.78235 401.5656ZM171.86047 401.5656Q171.86047 403.675 172.36047 404.3781Q172.86047 405.08124 173.57922 405.08124Q174.3136 405.08124 174.79797 404.3781Q175.29797 403.675 175.29797 401.5656Q175.29797 399.4406 174.79797 398.7531Q174.3136 398.05 173.5636 398.05Q172.84485 398.05 172.40735 398.65936Q171.86047 399.4406 171.86047 401.5656Z" fill-rule="nonzero"/><path fill="#000000" d="M187.6706 401.5656Q187.6706 400.03436 187.9831 399.1125Q188.2956 398.175 188.90497 397.675Q189.52997 397.175 190.46747 397.175Q191.15497 397.175 191.6706 397.45624Q192.20184 397.7375 192.5456 398.26874Q192.88934 398.78436 193.07684 399.53436Q193.26434 400.28436 193.26434 401.5656Q193.26434 403.08124 192.95184 404.0031Q192.65497 404.925 192.02997 405.4406Q191.4206 405.9406 190.46747 405.9406Q189.2331 405.9406 188.51434 405.05Q187.6706 403.9875 187.6706 401.5656ZM188.74872 401.5656Q188.74872 403.675 189.24872 404.3781Q189.74872 405.08124 190.46747 405.08124Q191.20184 405.08124 191.68622 404.3781Q192.18622 403.675 192.18622 401.5656Q192.18622 399.4406 191.68622 398.7531Q191.20184 398.05 190.45184 398.05Q189.7331 398.05 189.2956 398.65936Q188.74872 399.4406 188.74872 401.5656ZM195.26434 405.8L195.26434 404.59686L196.46747 404.59686L196.46747 405.8L195.26434 405.8ZM201.63934 405.8L200.59247 405.8L200.59247 399.08124Q200.20184 399.4406 199.57684 399.8156Q198.96747 400.175 198.4831 400.34686L198.4831 399.33124Q199.3581 398.90936 200.01434 398.33124Q200.68622 397.7375 200.96747 397.175L201.63934 397.175L201.63934 405.8ZM204.6706 401.5656Q204.6706 400.03436 204.9831 399.1125Q205.2956 398.175 205.90497 397.675Q206.52997 397.175 207.46747 397.175Q208.15497 397.175 208.6706 397.45624Q209.20184 397.7375 209.5456 398.26874Q209.88934 398.78436 210.07684 399.53436Q210.26434 400.28436 210.26434 401.5656Q210.26434 403.08124 209.95184 404.0031Q209.65497 404.925 209.02997 405.4406Q208.4206 405.9406 207.46747 405.9406Q206.2331 405.9406 205.51434 405.05Q204.6706 403.9875 204.6706 401.5656ZM205.74872 401.5656Q205.74872 403.675 206.24872 404.3781Q206.74872 405.08124 207.46747 405.08124Q208.20184 405.08124 208.68622 404.3781Q209.18622 403.675 209.18622 401.5656Q209.18622 399.4406 208.68622 398.7531Q208.20184 398.05 207.45184 398.05Q206.7331 398.05 206.2956 398.65936Q205.74872 399.4406 205.74872 401.5656ZM212.26434 405.8L212.26434 404.59686L213.46747 404.59686L213.46747 405.8L212.26434 405.8ZM214.6706 401.5656Q214.6706 400.03436 214.9831 399.1125Q215.2956 398.175 215.90497 397.675Q216.52997 397.175 217.46747 397.175Q218.15497 397.175 218.6706 397.45624Q219.20184 397.7375 219.5456 398.26874Q219.88934 398.78436 220.07684 399.53436Q220.26434 400.28436 220.26434 401.5656Q220.26434 403.08124 219.95184 404.0031Q219.65497 404.925 219.02997 405.4406Q218.4206 405.9406 217.46747 405.9406Q216.2331 405.9406 215.51434 405.05Q214.6706 403.9875 214.6706 401.5656ZM215.74872 401.5656Q215.74872 403.675 216.24872 404.3781Q216.74872 405.08124 217.46747 405.08124Q218.20184 405.08124 218.68622 404.3781Q219.18622 403.675 219.18622 401.5656Q219.18622 399.4406 218.68622 398.7531Q218.20184 398.05 217.45184 398.05Q216.7331 398.05 216.2956 398.65936Q215.74872 399.4406 215.74872 401.5656Z" fill-rule="nonzero"/><path fill="#000000" d="M228.05882 401.5656Q228.05882 400.03436 228.37132 399.1125Q228.68382 398.175 229.2932 397.675Q229.9182 397.175 230.8557 397.175Q231.5432 397.175 232.05882 397.45624Q232.59007 397.7375 232.93382 398.26874Q233.27757 398.78436 233.46507 399.53436Q233.65257 400.28436 233.65257 401.5656Q233.65257 403.08124 233.34007 404.0031Q233.0432 404.925 232.4182 405.4406Q231.80882 405.9406 230.8557 405.9406Q229.62132 405.9406 228.90257 405.05Q228.05882 403.9875 228.05882 401.5656ZM229.13695 401.5656Q229.13695 403.675 229.63695 404.3781Q230.13695 405.08124 230.8557 405.08124Q231.59007 405.08124 232.07445 404.3781Q232.57445 403.675 232.57445 401.5656Q232.57445 399.4406 232.07445 398.7531Q231.59007 398.05 230.84007 398.05Q230.12132 398.05 229.68382 398.65936Q229.13695 399.4406 229.13695 401.5656ZM235.65257 405.8L235.65257 404.59686L236.8557 404.59686L236.8557 405.8L235.65257 405.8ZM242.02757 405.8L240.9807 405.8L240.9807 399.08124Q240.59007 399.4406 239.96507 399.8156Q239.3557 400.175 238.87132 400.34686L238.87132 399.33124Q239.74632 398.90936 240.40257 398.33124Q241.07445 397.7375 241.3557 397.175L242.02757 397.175L242.02757 405.8ZM249.02757 405.8L247.9807 405.8L247.9807 399.08124Q247.59007 399.4406 246.96507 399.8156Q246.3557 400.175 245.87132 400.34686L245.87132 399.33124Q246.74632 398.90936 247.40257 398.33124Q248.07445 397.7375 248.3557 397.175L249.02757 397.175L249.02757 405.8ZM252.65257 405.8L252.65257 404.59686L253.8557 404.59686L253.8557 405.8L252.65257 405.8ZM255.05882 401.5656Q255.05882 400.03436 255.37132 399.1125Q255.68382 398.175 256.2932 397.675Q256.9182 397.175 257.8557 397.175Q258.5432 397.175 259.05884 397.45624Q259.5901 397.7375 259.93384 398.26874Q260.2776 398.78436 260.4651 399.53436Q260.6526 400.28436 260.6526 401.5656Q260.6526 403.08124 260.3401 404.0031Q260.0432 404.925 259.4182 405.4406Q258.80884 405.9406 257.8557 405.9406Q256.62134 405.9406 255.90257 405.05Q255.05882 403.9875 255.05882 401.5656ZM256.13696 401.5656Q256.13696 403.675 256.63696 404.3781Q257.13696 405.08124 257.8557 405.08124Q258.5901 405.08124 259.07446 404.3781Q259.57446 403.675 259.57446 401.5656Q259.57446 399.4406 259.07446 398.7531Q258.5901 398.05 257.8401 398.05Q257.12134 398.05 256.68384 398.65936Q256.13696 399.4406 256.13696 401.5656Z" fill-rule="nonzero"/><path fill="#000000" d="M275.9158 405.8L274.86893 405.8L274.86893 399.08124Q274.4783 399.4406 273.8533 399.8156Q273.24393 400.175 272.75955 400.34686L272.75955 399.33124Q273.63455 398.90936 274.2908 398.33124Q274.96268 397.7375 275.24393 397.175L275.9158 397.175L275.9158 405.8ZM279.5408 405.8L279.5408 404.59686L280.74393 404.59686L280.74393 405.8L279.5408 405.8ZM281.94705 401.5656Q281.94705 400.03436 282.25955 399.1125Q282.57205 398.175 283.18143 397.675Q283.80643 397.175 284.74393 397.175Q285.43143 397.175 285.94705 397.45624Q286.4783 397.7375 286.82205 398.26874Q287.1658 398.78436 287.3533 399.53436Q287.5408 400.28436 287.5408 401.5656Q287.5408 403.08124 287.2283 404.0031Q286.93143 404.925 286.30643 405.4406Q285.69705 405.9406 284.74393 405.9406Q283.50955 405.9406 282.7908 405.05Q281.94705 403.9875 281.94705 401.5656ZM283.02518 401.5656Q283.02518 403.675 283.52518 404.3781Q284.02518 405.08124 284.74393 405.08124Q285.4783 405.08124 285.96268 404.3781Q286.46268 403.675 286.46268 401.5656Q286.46268 399.4406 285.96268 398.7531Q285.4783 398.05 284.7283 398.05Q284.00955 398.05 283.57205 398.65936Q283.02518 399.4406 283.02518 401.5656ZM289.5408 405.8L289.5408 404.59686L290.74393 404.59686L290.74393 405.8L289.5408 405.8ZM291.94705 401.5656Q291.94705 400.03436 292.25955 399.1125Q292.57205 398.175 293.18143 397.675Q293.80643 397.175 294.74393 397.175Q295.43143 397.175 295.94705 397.45624Q296.4783 397.7375 296.82205 398.26874Q297.1658 398.78436 297.3533 399.53436Q297.5408 400.28436 297.5408 401.5656Q297.5408 403.08124 297.2283 404.0031Q296.93143 404.925 296.30643 405.4406Q295.69705 405.9406 294.74393 405.9406Q293.50955 405.9406 292.7908 405.05Q291.94705 403.9875 291.94705 401.5656ZM293.02518 401.5656Q293.02518 403.675 293.52518 404.3781Q294.02518 405.08124 294.74393 405.08124Q295.4783 405.08124 295.96268 404.3781Q296.46268 403.675 296.46268 401.5656Q296.46268 399.4406 295.96268 398.7531Q295.4783 398.05 294.7283 398.05Q294.00955 398.05 293.57205 398.65936Q293.02518 399.4406 293.02518 401.5656Z" fill-rule="nonzero"/><path fill="#000000" d="M316.30405 405.8L315.25717 405.8L315.25717 399.08124Q314.86655 399.4406 314.24155 399.8156Q313.63217 400.175 313.1478 400.34686L313.1478 399.33124Q314.0228 398.90936 314.67905 398.33124Q315.35092 397.7375 315.63217 397.175L316.30405 397.175L316.30405 405.8ZM319.92905 405.8L319.92905 404.59686L321.13217 404.59686L321.13217 405.8L319.92905 405.8ZM326.30405 405.8L325.25717 405.8L325.25717 399.08124Q324.86655 399.4406 324.24155 399.8156Q323.63217 400.175 323.1478 400.34686L323.1478 399.33124Q324.0228 398.90936 324.67905 398.33124Q325.35092 397.7375 325.63217 397.175L326.30405 397.175L326.30405 405.8ZM329.92905 405.8L329.92905 404.59686L331.13217 404.59686L331.13217 405.8L329.92905 405.8ZM332.3353 401.5656Q332.3353 400.03436 332.6478 399.1125Q332.9603 398.175 333.56967 397.675Q334.19467 397.175 335.13217 397.175Q335.81967 397.175 336.3353 397.45624Q336.86655 397.7375 337.2103 398.26874Q337.55405 398.78436 337.74155 399.53436Q337.92905 400.28436 337.92905 401.5656Q337.92905 403.08124 337.61655 404.0031Q337.31967 404.925 336.69467 405.4406Q336.0853 405.9406 335.13217 405.9406Q333.8978 405.9406 333.17905 405.05Q332.3353 403.9875 332.3353 401.5656ZM333.41342 401.5656Q333.41342 403.675 333.91342 404.3781Q334.41342 405.08124 335.13217 405.08124Q335.86655 405.08124 336.35092 404.3781Q336.85092 403.675 336.85092 401.5656Q336.85092 399.4406 336.35092 398.7531Q335.86655 398.05 335.11655 398.05Q334.3978 398.05 333.9603 398.65936Q333.41342 399.4406 333.41342 401.5656Z" fill-rule="nonzero"/><path fill="#000000" d="M358.27042 404.78436L358.27042 405.8L352.58292 405.8Q352.58292 405.425 352.70792 405.0656Q352.92667 404.4875 353.39542 403.925Q353.8798 403.3625 354.78604 402.6281Q356.1923 401.47186 356.67667 400.8Q357.17667 400.1281 357.17667 399.53436Q357.17667 398.90936 356.72354 398.4875Q356.27042 398.05 355.55167 398.05Q354.78604 398.05 354.33292 398.5031Q353.8798 398.95624 353.86417 399.76874L352.78604 399.65936Q352.89542 398.4406 353.61417 397.8156Q354.34854 397.175 355.58292 397.175Q356.8173 397.175 357.53604 397.8625Q358.2548 398.55 358.2548 399.5656Q358.2548 400.08124 358.03604 400.58124Q357.83292 401.0656 357.33292 401.6281Q356.84854 402.175 355.72354 403.1281Q354.77042 403.925 354.48917 404.22186Q354.22354 404.5031 354.05167 404.78436L358.27042 404.78436ZM360.3173 405.8L360.3173 404.59686L361.52042 404.59686L361.52042 405.8L360.3173 405.8ZM362.72354 401.5656Q362.72354 400.03436 363.03604 399.1125Q363.34854 398.175 363.95792 397.675Q364.58292 397.175 365.52042 397.175Q366.20792 397.175 366.72354 397.45624Q367.2548 397.7375 367.59854 398.26874Q367.9423 398.78436 368.1298 399.53436Q368.3173 400.28436 368.3173 401.5656Q368.3173 403.08124 368.0048 404.0031Q367.70792 404.925 367.08292 405.4406Q366.47354 405.9406 365.52042 405.9406Q364.28604 405.9406 363.5673 405.05Q362.72354 403.9875 362.72354 401.5656ZM363.80167 401.5656Q363.80167 403.675 364.30167 404.3781Q364.80167 405.08124 365.52042 405.08124Q366.2548 405.08124 366.73917 404.3781Q367.23917 403.675 367.23917 401.5656Q367.23917 399.4406 366.73917 398.7531Q366.2548 398.05 365.5048 398.05Q364.78604 398.05 364.34854 398.65936Q363.80167 399.4406 363.80167 401.5656ZM370.3173 405.8L370.3173 404.59686L371.52042 404.59686L371.52042 405.8L370.3173 405.8ZM372.72354 401.5656Q372.72354 400.03436 373.03604 399.1125Q373.34854 398.175 373.95792 397.675Q374.58292 397.175 375.52042 397.175Q376.20792 397.175 376.72354 397.45624Q377.2548 397.7375 377.59854 398.26874Q377.9423 398.78436 378.1298 399.53436Q378.3173 400.28436 378.3173 401.5656Q378.3173 403.08124 378.0048 404.0031Q377.70792 404.925 377.08292 405.4406Q376.47354 405.9406 375.52042 405.9406Q374.28604 405.9406 373.5673 405.05Q372.72354 403.9875 372.72354 401.5656ZM373.80167 401.5656Q373.80167 403.675 374.30167 404.3781Q374.80167 405.08124 375.52042 405.08124Q376.2548 405.08124 376.73917 404.3781Q377.23917 403.675 377.23917 401.5656Q377.23917 399.4406 376.73917 398.7531Q376.2548 398.05 375.5048 398.05Q374.78604 398.05 374.34854 398.65936Q373.80167 399.4406 373.80167 401.5656Z" fill-rule="nonzero"/><path fill="#000000" d="M398.65863 404.78436L398.65863 405.8L392.97113 405.8Q392.97113 405.425 393.09613 405.0656Q393.31488 404.4875 393.78363 403.925Q394.268 403.3625 395.17426 402.6281Q396.5805 401.47186 397.06488 400.8Q397.56488 400.1281 397.56488 399.53436Q397.56488 398.90936 397.11176 398.4875Q396.65863 398.05 395.93988 398.05Q395.17426 398.05 394.72113 398.5031Q394.268 398.95624 394.25238 399.76874L393.17426 399.65936Q393.28363 398.4406 394.00238 397.8156Q394.73676 397.175 395.97113 397.175Q397.2055 397.175 397.92426 397.8625Q398.643 398.55 398.643 399.5656Q398.643 400.08124 398.42426 400.58124Q398.22113 401.0656 397.72113 401.6281Q397.23676 402.175 396.11176 403.1281Q395.15863 403.925 394.87738 404.22186Q394.61176 404.5031 394.43988 404.78436L398.65863 404.78436ZM400.7055 405.8L400.7055 404.59686L401.90863 404.59686L401.90863 405.8L400.7055 405.8ZM407.0805 405.8L406.03363 405.8L406.03363 399.08124Q405.643 399.4406 405.018 399.8156Q404.40863 400.175 403.92426 400.34686L403.92426 399.33124Q404.79926 398.90936 405.4555 398.33124Q406.12738 397.7375 406.40863 397.175L407.0805 397.175L407.0805 405.8ZM410.7055 405.8L410.7055 404.59686L411.90863 404.59686L411.90863 405.8L410.7055 405.8ZM413.11176 401.5656Q413.11176 400.03436 413.42426 399.1125Q413.73676 398.175 414.34613 397.675Q414.97113 397.175 415.90863 397.175Q416.59613 397.175 417.11176 397.45624Q417.643 397.7375 417.98676 398.26874Q418.3305 398.78436 418.518 399.53436Q418.7055 400.28436 418.7055 401.5656Q418.7055 403.08124 418.393 404.0031Q418.09613 404.925 417.47113 405.4406Q416.86176 405.9406 415.90863 405.9406Q414.67426 405.9406 413.9555 405.05Q413.11176 403.9875 413.11176 401.5656ZM414.18988 401.5656Q414.18988 403.675 414.68988 404.3781Q415.18988 405.08124 415.90863 405.08124Q416.643 405.08124 417.12738 404.3781Q417.62738 403.675 417.62738 401.5656Q417.62738 399.4406 417.12738 398.7531Q416.643 398.05 415.893 398.05Q415.17426 398.05 414.73676 398.65936Q414.18988 399.4406 414.18988 401.5656Z" fill-rule="nonzero"/><path fill="#000000" d="M439.04688 404.78436L439.04688 405.8L433.35938 405.8Q433.35938 405.425 433.48438 405.0656Q433.70312 404.4875 434.17188 403.925Q434.65625 403.3625 435.5625 402.6281Q436.96875 401.47186 437.45312 400.8Q437.95312 400.1281 437.95312 399.53436Q437.95312 398.90936 437.5 398.4875Q437.04688 398.05 436.32812 398.05Q435.5625 398.05 435.10938 398.5031Q434.65625 398.95624 434.64062 399.76874L433.5625 399.65936Q433.67188 398.4406 434.39062 397.8156Q435.125 397.175 436.35938 397.175Q437.59375 397.175 438.3125 397.8625Q439.03125 398.55 439.03125 399.5656Q439.03125 400.08124 438.8125 400.58124Q438.60938 401.0656 438.10938 401.6281Q437.625 402.175 436.5 403.1281Q435.54688 403.925 435.26562 404.22186Q435.0 404.5031 434.82812 404.78436L439.04688 404.78436ZM441.09375 405.8L441.09375 404.59686L442.29688 404.59686L442.29688 405.8L441.09375 405.8ZM449.04688 404.78436L449.04688 405.8L443.35938 405.8Q443.35938 405.425 443.48438 405.0656Q443.70312 404.4875 444.17188 403.925Q444.65625 403.3625 445.5625 402.6281Q446.96875 401.47186 447.45312 400.8Q447.95312 400.1281 447.95312 399.53436Q447.95312 398.90936 447.5 398.4875Q447.04688 398.05 446.32812 398.05Q445.5625 398.05 445.10938 398.5031Q444.65625 398.95624 444.64062 399.76874L443.5625 399.65936Q443.67188 398.4406 444.39062 397.8156Q445.125 397.175 446.35938 397.175Q447.59375 397.175 448.3125 397.8625Q449.03125 398.55 449.03125 399.5656Q449.03125 400.08124 448.8125 400.58124Q448.60938 401.0656 448.10938 401.6281Q447.625 402.175 446.5 403.1281Q445.54688 403.925 445.26562 404.22186Q445.0 404.5031 444.82812 404.78436L449.04688 404.78436ZM451.09375 405.8L451.09375 404.59686L452.29688 404.59686L452.29688 405.8L451.09375 405.8ZM453.5 401.5656Q453.5 400.03436 453.8125 399.1125Q454.125 398.175 454.73438 397.675Q455.35938 397.175 456.29688 397.175Q456.98438 397.175 457.5 397.45624Q458.03125 397.7375 458.375 398.26874Q458.71875 398.78436 458.90625 399.53436Q459.09375 400.28436 459.09375 401.5656Q459.09375 403.08124 458.78125 404.0031Q458.48438 404.925 457.85938 405.4406Q457.25 405.9406 456.29688 405.9406Q455.0625 405.9406 454.34375 405.05Q453.5 403.9875 453.5 401.5656ZM454.57812 401.5656Q454.57812 403.675 455.07812 404.3781Q455.57812 405.08124 456.29688 405.08124Q457.03125 405.08124 457.51562 404.3781Q458.01562 403.675 458.01562 401.5656Q458.01562 399.4406 457.51562 398.7531Q457.03125 398.05 456.28125 398.05Q455.5625 398.05 455.125 398.65936Q454.57812 399.4406 454.57812 401.5656Z" fill-rule="nonzero"/><path fill="#000000" d="M479.43512 404.78436L479.43512 405.8L473.74762 405.8Q473.74762 405.425 473.87262 405.0656Q474.09137 404.4875 474.56012 403.925Q475.0445 403.3625 475.95074 402.6281Q477.357 401.47186 477.84137 400.8Q478.34137 400.1281 478.34137 399.53436Q478.34137 398.90936 477.88824 398.4875Q477.43512 398.05 476.71637 398.05Q475.95074 398.05 475.49762 398.5031Q475.0445 398.95624 475.02887 399.76874L473.95074 399.65936Q474.06012 398.4406 474.77887 397.8156Q475.51324 397.175 476.74762 397.175Q477.982 397.175 478.70074 397.8625Q479.4195 398.55 479.4195 399.5656Q479.4195 400.08124 479.20074 400.58124Q478.99762 401.0656 478.49762 401.6281Q478.01324 402.175 476.88824 403.1281Q475.93512 403.925 475.65387 404.22186Q475.38824 404.5031 475.21637 404.78436L479.43512 404.78436ZM481.482 405.8L481.482 404.59686L482.68512 404.59686L482.68512 405.8L481.482 405.8ZM483.88824 403.53436L484.95074 403.39374Q485.12262 404.28436 485.56012 404.6906Q485.99762 405.08124 486.62262 405.08124Q487.37262 405.08124 487.88824 404.5656Q488.40387 404.05 488.40387 403.28436Q488.40387 402.5656 487.9195 402.09686Q487.45074 401.6125 486.71637 401.6125Q486.4195 401.6125 485.96637 401.7375L486.09137 400.8Q486.20074 400.8156 486.26324 400.8156Q486.93512 400.8156 487.46637 400.47186Q488.01324 400.1125 488.01324 399.3781Q488.01324 398.8 487.62262 398.425Q487.232 398.03436 486.607 398.03436Q485.99762 398.03436 485.57574 398.425Q485.1695 398.8156 485.06012 399.58124L483.99762 399.39374Q484.18512 398.34686 484.87262 397.76874Q485.56012 397.175 486.57574 397.175Q487.27887 397.175 487.87262 397.4875Q488.46637 397.78436 488.77887 398.3Q489.09137 398.8156 489.09137 399.40936Q489.09137 399.95624 488.7945 400.425Q488.49762 400.8781 487.9195 401.14374Q488.6695 401.3156 489.09137 401.8781Q489.51324 402.425 489.51324 403.26874Q489.51324 404.39374 488.68512 405.175Q487.87262 405.95624 486.62262 405.95624Q485.49762 405.95624 484.74762 405.28436Q483.99762 404.59686 483.88824 403.53436ZM491.482 405.8L491.482 404.59686L492.68512 404.59686L492.68512 405.8L491.482 405.8ZM493.88824 401.5656Q493.88824 400.03436 494.20074 399.1125Q494.51324 398.175 495.12262 397.675Q495.74762 397.175 496.68512 397.175Q497.37262 397.175 497.88824 397.45624Q498.4195 397.7375 498.76324 398.26874Q499.107 398.78436 499.2945 399.53436Q499.482 400.28436 499.482 401.5656Q499.482 403.08124 499.1695 404.0031Q498.87262 404.925 498.24762 405.4406Q497.63824 405.9406 496.68512 405.9406Q495.45074 405.9406 494.732 405.05Q493.88824 403.9875 493.88824 401.5656ZM494.96637 401.5656Q494.96637 403.675 495.46637 404.3781Q495.96637 405.08124 496.68512 405.08124Q497.4195 405.08124 497.90387 404.3781Q498.40387 403.675 498.40387 401.5656Q498.40387 399.4406 497.90387 398.7531Q497.4195 398.05 496.6695 398.05Q495.95074 398.05 495.51324 398.65936Q494.96637 399.4406 494.96637 401.5656Z" fill-rule="nonzero"/><path fill="#000000" d="M519.82336 404.78436L519.82336 405.8L514.13586 405.8Q514.13586 405.425 514.26086 405.0656Q514.4796 404.4875 514.94836 403.925Q515.43274 403.3625 516.339 402.6281Q517.74524 401.47186 518.2296 400.8Q518.7296 400.1281 518.7296 399.53436Q518.7296 398.90936 518.2765 398.4875Q517.82336 398.05 517.1046 398.05Q516.339 398.05 515.88586 398.5031Q515.43274 398.95624 515.4171 399.76874L514.339 399.65936Q514.44836 398.4406 515.1671 397.8156Q515.9015 397.175 517.13586 397.175Q518.37024 397.175 519.089 397.8625Q519.80774 398.55 519.80774 399.5656Q519.80774 400.08124 519.589 400.58124Q519.38586 401.0656 518.88586 401.6281Q518.4015 402.175 517.2765 403.1281Q516.32336 403.925 516.0421 404.22186Q515.7765 404.5031 515.6046 404.78436L519.82336 404.78436ZM521.87024 405.8L521.87024 404.59686L523.07336 404.59686L523.07336 405.8L521.87024 405.8ZM527.6515 405.8L527.6515 403.7375L523.93274 403.7375L523.93274 402.76874L527.8546 397.20624L528.714 397.20624L528.714 402.76874L529.87024 402.76874L529.87024 403.7375L528.714 403.7375L528.714 405.8L527.6515 405.8ZM527.6515 402.76874L527.6515 398.90936L524.964 402.76874L527.6515 402.76874ZM531.87024 405.8L531.87024 404.59686L533.07336 404.59686L533.07336 405.8L531.87024 405.8ZM534.2765 401.5656Q534.2765 400.03436 534.589 399.1125Q534.9015 398.175 535.51086 397.675Q536.13586 397.175 537.07336 397.175Q537.76086 397.175 538.2765 397.45624Q538.80774 397.7375 539.1515 398.26874Q539.49524 398.78436 539.68274 399.53436Q539.87024 400.28436 539.87024 401.5656Q539.87024 403.08124 539.55774 404.0031Q539.26086 404.925 538.63586 405.4406Q538.0265 405.9406 537.07336 405.9406Q535.839 405.9406 535.12024 405.05Q534.2765 403.9875 534.2765 401.5656ZM535.3546 401.5656Q535.3546 403.675 535.8546 404.3781Q536.3546 405.08124 537.07336 405.08124Q537.80774 405.08124 538.2921 404.3781Q538.7921 403.675 538.7921 401.5656Q538.7921 399.4406 538.2921 398.7531Q537.80774 398.05 537.05774 398.05Q536.339 398.05 535.9015 398.65936Q535.3546 399.4406 535.3546 401.5656Z" fill-rule="nonzero"/><path fill="#000000" d="M560.2116 404.78436L560.2116 405.8L554.5241 405.8Q554.5241 405.425 554.6491 405.0656Q554.86786 404.4875 555.3366 403.925Q555.821 403.3625 556.72723 402.6281Q558.1335 401.47186 558.61786 400.8Q559.11786 400.1281 559.11786 399.53436Q559.11786 398.90936 558.66473 398.4875Q558.2116 398.05 557.49286 398.05Q556.72723 398.05 556.2741 398.5031Q555.821 398.95624 555.80536 399.76874L554.72723 399.65936Q554.8366 398.4406 555.55536 397.8156Q556.28973 397.175 557.5241 397.175Q558.7585 397.175 559.47723 397.8625Q560.196 398.55 560.196 399.5656Q560.196 400.08124 559.97723 400.58124Q559.7741 401.0656 559.2741 401.6281Q558.78973 402.175 557.66473 403.1281Q556.7116 403.925 556.43036 404.22186Q556.16473 404.5031 555.99286 404.78436L560.2116 404.78436ZM562.2585 405.8L562.2585 404.59686L563.4616 404.59686L563.4616 405.8L562.2585 405.8ZM564.66473 403.55L565.7741 403.45624Q565.8991 404.26874 566.3366 404.675Q566.78973 405.08124 567.43036 405.08124Q568.18036 405.08124 568.7116 404.5031Q569.24286 403.925 569.24286 402.9875Q569.24286 402.08124 568.72723 401.5656Q568.22723 401.03436 567.3991 401.03436Q566.8991 401.03436 566.47723 401.26874Q566.071 401.5031 565.8366 401.8625L564.85223 401.7375L565.68036 397.33124L569.9616 397.33124L569.9616 398.33124L566.5241 398.33124L566.071 400.64374Q566.8366 400.09686 567.68036 400.09686Q568.80536 400.09686 569.571 400.8781Q570.35223 401.65936 570.35223 402.89374Q570.35223 404.05 569.68036 404.90936Q568.85223 405.9406 567.43036 405.9406Q566.2585 405.9406 565.5085 405.28436Q564.7741 404.6281 564.66473 403.55ZM572.2585 405.8L572.2585 404.59686L573.4616 404.59686L573.4616 405.8L572.2585 405.8ZM574.66473 401.5656Q574.66473 400.03436 574.97723 399.1125Q575.28973 398.175 575.8991 397.675Q576.5241 397.175 577.4616 397.175Q578.1491 397.175 578.66473 397.45624Q579.196 397.7375 579.53973 398.26874Q579.8835 398.78436 580.071 399.53436Q580.2585 400.28436 580.2585 401.5656Q580.2585 403.08124 579.946 404.0031Q579.6491 404.925 579.0241 405.4406Q578.41473 405.9406 577.4616 405.9406Q576.22723 405.9406 575.5085 405.05Q574.66473 403.9875 574.66473 401.5656ZM575.74286 401.5656Q575.74286 403.675 576.24286 404.3781Q576.74286 405.08124 577.4616 405.08124Q578.196 405.08124 578.68036 404.3781Q579.18036 403.675 579.18036 401.5656Q579.18036 399.4406 578.68036 398.7531Q578.196 398.05 577.446 398.05Q576.72723 398.05 576.28973 398.65936Q575.74286 399.4406 575.74286 401.5656Z" fill-rule="nonzero"/><path fill="#000000" d="M600.5998 404.78436L600.5998 405.8L594.9123 405.8Q594.9123 405.425 595.0373 405.0656Q595.25604 404.4875 595.7248 403.925Q596.20917 403.3625 597.1154 402.6281Q598.52167 401.47186 599.00604 400.8Q599.50604 400.1281 599.50604 399.53436Q599.50604 398.90936 599.0529 398.4875Q598.5998 398.05 597.88104 398.05Q597.1154 398.05 596.6623 398.5031Q596.20917 398.95624 596.19354 399.76874L595.1154 399.65936Q595.2248 398.4406 595.94354 397.8156Q596.6779 397.175 597.9123 397.175Q599.14667 397.175 599.8654 397.8625Q600.58417 398.55 600.58417 399.5656Q600.58417 400.08124 600.3654 400.58124Q600.1623 401.0656 599.6623 401.6281Q599.1779 402.175 598.0529 403.1281Q597.0998 403.925 596.81854 404.22186Q596.5529 404.5031 596.38104 404.78436L600.5998 404.78436ZM602.64667 405.8L602.64667 404.59686L603.8498 404.59686L603.8498 405.8L602.64667 405.8ZM610.52167 399.3156L609.4748 399.39374Q609.33417 398.76874 609.08417 398.4875Q608.64667 398.03436 608.02167 398.03436Q607.52167 398.03436 607.13104 398.3156Q606.64667 398.6906 606.3498 399.39374Q606.06854 400.08124 606.0529 401.3625Q606.4279 400.78436 606.9748 400.5031Q607.5373 400.22186 608.14667 400.22186Q609.19354 400.22186 609.9279 401.0031Q610.6779 401.78436 610.6779 403.0031Q610.6779 403.8156 610.31854 404.51874Q609.9748 405.20624 609.3654 405.58124Q608.75604 405.9406 607.9904 405.9406Q606.6623 405.9406 605.83417 404.97186Q605.00604 404.0031 605.00604 401.78436Q605.00604 399.28436 605.9279 398.15936Q606.7248 397.175 608.08417 397.175Q609.0998 397.175 609.7404 397.7531Q610.39667 398.3156 610.52167 399.3156ZM606.2248 403.01874Q606.2248 403.5656 606.44354 404.0656Q606.6779 404.55 607.08417 404.8156Q607.50604 405.08124 607.9748 405.08124Q608.63104 405.08124 609.1154 404.55Q609.5998 404.0031 609.5998 403.08124Q609.5998 402.1906 609.1154 401.675Q608.64667 401.15936 607.9279 401.15936Q607.20917 401.15936 606.70917 401.675Q606.2248 402.1906 606.2248 403.01874ZM612.64667 405.8L612.64667 404.59686L613.8498 404.59686L613.8498 405.8L612.64667 405.8ZM615.0529 401.5656Q615.0529 400.03436 615.3654 399.1125Q615.6779 398.175 616.2873 397.675Q616.9123 397.175 617.8498 397.175Q618.5373 397.175 619.0529 397.45624Q619.58417 397.7375 619.9279 398.26874Q620.27167 398.78436 620.45917 399.53436Q620.64667 400.28436 620.64667 401.5656Q620.64667 403.08124 620.33417 404.0031Q620.0373 404.925 619.4123 405.4406Q618.8029 405.9406 617.8498 405.9406Q616.6154 405.9406 615.89667 405.05Q615.0529 403.9875 615.0529 401.5656ZM616.13104 401.5656Q616.13104 403.675 616.63104 404.3781Q617.13104 405.08124 617.8498 405.08124Q618.58417 405.08124 619.06854 404.3781Q619.56854 403.675 619.56854 401.5656Q619.56854 399.4406 619.06854 398.7531Q618.58417 398.05 617.83417 398.05Q617.1154 398.05 616.6779 398.65936Q616.13104 399.4406 616.13104 401.5656Z" fill-rule="nonzero"/><path fill="#000000" d="M645.98804 404.78436L645.98804 405.8L640.30054 405.8Q640.30054 405.425 640.42554 405.0656Q640.6443 404.4875 641.11304 403.925Q641.5974 403.3625 642.50366 402.6281Q643.9099 401.47186 644.3943 400.8Q644.8943 400.1281 644.8943 399.53436Q644.8943 398.90936 644.44116 398.4875Q643.98804 398.05 643.2693 398.05Q642.50366 398.05 642.05054 398.5031Q641.5974 398.95624 641.5818 399.76874L640.50366 399.65936Q640.61304 398.4406 641.3318 397.8156Q642.06616 397.175 643.30054 397.175Q644.5349 397.175 645.25366 397.8625Q645.9724 398.55 645.9724 399.5656Q645.9724 400.08124 645.75366 400.58124Q645.55054 401.0656 645.05054 401.6281Q644.56616 402.175 643.44116 403.1281Q642.48804 403.925 642.2068 404.22186Q641.94116 404.5031 641.7693 404.78436L645.98804 404.78436ZM648.0349 405.8L648.0349 404.59686L649.23804 404.59686L649.23804 405.8L648.0349 405.8ZM650.50366 398.33124L650.50366 397.3156L656.06616 397.3156L656.06616 398.14374Q655.25366 399.01874 654.44116 400.47186Q653.6443 401.90936 653.2068 403.4406Q652.87866 404.51874 652.80054 405.8L651.7068 405.8Q651.7224 404.78436 652.0974 403.34686Q652.48804 401.90936 653.19116 400.58124Q653.9099 399.2531 654.7224 398.33124L650.50366 398.33124Z" fill-rule="nonzero"/><path fill="#000000" d="M686.3763 404.78436L686.3763 405.8L680.6888 405.8Q680.6888 405.425 680.8138 405.0656Q681.03253 404.4875 681.5013 403.925Q681.98566 403.3625 682.8919 402.6281Q684.29816 401.47186 684.78253 400.8Q685.28253 400.1281 685.28253 399.53436Q685.28253 398.90936 684.8294 398.4875Q684.3763 398.05 683.65753 398.05Q682.8919 398.05 682.4388 398.5031Q681.98566 398.95624 681.97003 399.76874L680.8919 399.65936Q681.0013 398.4406 681.72003 397.8156Q682.4544 397.175 683.6888 397.175Q684.92316 397.175 685.6419 397.8625Q686.36066 398.55 686.36066 399.5656Q686.36066 400.08124 686.1419 400.58124Q685.9388 401.0656 685.4388 401.6281Q684.9544 402.175 683.8294 403.1281Q682.8763 403.925 682.59503 404.22186Q682.3294 404.5031 682.15753 404.78436L686.3763 404.78436ZM688.42316 405.8L688.42316 404.59686L689.6263 404.59686L689.6263 405.8L688.42316 405.8ZM692.4544 401.14374Q691.79816 400.89374 691.47003 400.45624Q691.15753 400.0031 691.15753 399.39374Q691.15753 398.45624 691.8294 397.8156Q692.5169 397.175 693.6263 397.175Q694.7513 397.175 695.4388 397.83124Q696.1263 398.4875 696.1263 399.425Q696.1263 400.01874 695.8138 400.45624Q695.5013 400.89374 694.86066 401.14374Q695.65753 401.39374 696.0638 401.97186Q696.47003 402.55 696.47003 403.34686Q696.47003 404.4406 695.6888 405.1906Q694.92316 405.9406 693.6419 405.9406Q692.3763 405.9406 691.59503 405.1906Q690.8138 404.4406 690.8138 403.3156Q690.8138 402.47186 691.23566 401.90936Q691.67316 401.34686 692.4544 401.14374ZM692.23566 399.34686Q692.23566 399.95624 692.6263 400.34686Q693.03253 400.7375 693.65753 400.7375Q694.2669 400.7375 694.65753 400.3625Q695.04816 399.97186 695.04816 399.40936Q695.04816 398.83124 694.6419 398.4406Q694.23566 398.03436 693.6419 398.03436Q693.03253 398.03436 692.6263 398.425Q692.23566 398.8156 692.23566 399.34686ZM691.90753 403.3156Q691.90753 403.76874 692.11066 404.1906Q692.3294 404.6125 692.7513 404.84686Q693.17316 405.08124 693.65753 405.08124Q694.40753 405.08124 694.8919 404.59686Q695.3919 404.1125 695.3919 403.3625Q695.3919 402.59686 694.8919 402.09686Q694.3919 401.59686 693.6263 401.59686Q692.8763 401.59686 692.3919 402.09686Q691.90753 402.58124 691.90753 403.3156Z" fill-rule="nonzero"/><path fill="#000000" d="M721.21765 403.53436L722.28015 403.39374Q722.452 404.28436 722.8895 404.6906Q723.327 405.08124 723.952 405.08124Q724.702 405.08124 725.21765 404.5656Q725.7333 404.05 725.7333 403.28436Q725.7333 402.5656 725.2489 402.09686Q724.78015 401.6125 724.0458 401.6125Q723.7489 401.6125 723.2958 401.7375L723.4208 400.8Q723.53015 400.8156 723.59265 400.8156Q724.2645 400.8156 724.7958 400.47186Q725.34265 400.1125 725.34265 399.3781Q725.34265 398.8 724.952 398.425Q724.5614 398.03436 723.9364 398.03436Q723.327 398.03436 722.90515 398.425Q722.4989 398.8156 722.3895 399.58124L721.327 399.39374Q721.5145 398.34686 722.202 397.76874Q722.8895 397.175 723.90515 397.175Q724.6083 397.175 725.202 397.4875Q725.7958 397.78436 726.1083 398.3Q726.4208 398.8156 726.4208 399.40936Q726.4208 399.95624 726.1239 400.425Q725.827 400.8781 725.2489 401.14374Q725.9989 401.3156 726.4208 401.8781Q726.84265 402.425 726.84265 403.26874Q726.84265 404.39374 726.0145 405.175Q725.202 405.95624 723.952 405.95624Q722.827 405.95624 722.077 405.28436Q721.327 404.59686 721.21765 403.53436ZM728.8114 405.8L728.8114 404.59686L730.0145 404.59686L730.0145 405.8L728.8114 405.8ZM731.21765 401.5656Q731.21765 400.03436 731.53015 399.1125Q731.84265 398.175 732.452 397.675Q733.077 397.175 734.0145 397.175Q734.702 397.175 735.21765 397.45624Q735.7489 397.7375 736.09265 398.26874Q736.4364 398.78436 736.6239 399.53436Q736.8114 400.28436 736.8114 401.5656Q736.8114 403.08124 736.4989 404.0031Q736.202 404.925 735.577 405.4406Q734.96765 405.9406 734.0145 405.9406Q732.78015 405.9406 732.0614 405.05Q731.21765 403.9875 731.21765 401.5656ZM732.2958 401.5656Q732.2958 403.675 732.7958 404.3781Q733.2958 405.08124 734.0145 405.08124Q734.7489 405.08124 735.2333 404.3781Q735.7333 403.675 735.7333 401.5656Q735.7333 399.4406 735.2333 398.7531Q734.7489 398.05 733.9989 398.05Q733.28015 398.05 732.84265 398.65936Q732.2958 399.4406 732.2958 401.5656Z" fill-rule="nonzero"/><path fill="#000000" d="M761.6059 403.53436L762.6684 403.39374Q762.8403 404.28436 763.2778 404.6906Q763.7153 405.08124 764.3403 405.08124Q765.0903 405.08124 765.6059 404.5656Q766.1215 404.05 766.1215 403.28436Q766.1215 402.5656 765.63715 402.09686Q765.1684 401.6125 764.434 401.6125Q764.13715 401.6125 763.684 401.7375L763.809 400.8Q763.9184 400.8156 763.9809 400.8156Q764.6528 400.8156 765.184 400.47186Q765.7309 400.1125 765.7309 399.3781Q765.7309 398.8 765.3403 398.425Q764.94965 398.03436 764.32465 398.03436Q763.7153 398.03436 763.2934 398.425Q762.88715 398.8156 762.7778 399.58124L761.7153 399.39374Q761.9028 398.34686 762.5903 397.76874Q763.2778 397.175 764.2934 397.175Q764.9965 397.175 765.5903 397.4875Q766.184 397.78436 766.4965 398.3Q766.809 398.8156 766.809 399.40936Q766.809 399.95624 766.51215 400.425Q766.2153 400.8781 765.63715 401.14374Q766.38715 401.3156 766.809 401.8781Q767.2309 402.425 767.2309 403.26874Q767.2309 404.39374 766.4028 405.175Q765.5903 405.95624 764.3403 405.95624Q763.2153 405.95624 762.4653 405.28436Q761.7153 404.59686 761.6059 403.53436ZM769.19965 405.8L769.19965 404.59686L770.4028 404.59686L770.4028 405.8L769.19965 405.8ZM775.57465 405.8L774.5278 405.8L774.5278 399.08124Q774.13715 399.4406 773.51215 399.8156Q772.9028 400.175 772.4184 400.34686L772.4184 399.33124Q773.2934 398.90936 773.94965 398.33124Q774.6215 397.7375 774.9028 397.175L775.57465 397.175L775.57465 405.8Z" fill-rule="nonzero"/><path fill="#4285f4" d="M350.5 25.2C350.5 24.647715 350.94772 24.2 351.5 24.2L361.5 24.2C362.05228 24.2 362.5 24.647715 362.5 25.2L362.5 35.2C362.5 35.752285 362.05228 36.2 361.5 36.2L351.5 36.2C350.94772 36.2 350.5 35.752285 350.5 35.2Z" fill-rule="nonzero"/><path fill="#1a1a1a" d="M370.84375 31.7625L371.875 31.621876Q371.90625 32.60625 372.23438 32.965626Q372.5625 33.325 373.15625 33.325Q373.57812 33.325 373.89062 33.1375Q374.20312 32.934376 374.3125 32.60625Q374.4375 32.2625 374.4375 31.528126L374.4375 25.60625L375.5625 25.60625L375.5625 31.465626Q375.5625 32.54375 375.29688 33.1375Q375.04688 33.73125 374.48438 34.04375Q373.92188 34.340626 373.15625 34.340626Q372.03125 34.340626 371.42188 33.7Q370.82812 33.04375 370.84375 31.7625ZM381.35938 33.434376Q380.76562 33.934376 380.21875 34.1375Q379.6875 34.340626 379.0625 34.340626Q378.03125 34.340626 377.48438 33.840626Q376.9375 33.340626 376.9375 32.559376Q376.9375 32.10625 377.14062 31.73125Q377.34375 31.340626 377.6875 31.121876Q378.03125 30.8875 378.45312 30.778126Q378.75 30.684376 379.39062 30.60625Q380.65625 30.465626 381.26562 30.246876Q381.26562 30.028126 381.26562 29.98125Q381.26562 29.325 380.96875 29.059376Q380.5625 28.715626 379.76562 28.715626Q379.03125 28.715626 378.67188 28.98125Q378.3125 29.23125 378.14062 29.8875L377.10938 29.746876Q377.25 29.090626 377.57812 28.684376Q377.90625 28.278126 378.51562 28.059376Q379.125 27.840626 379.92188 27.840626Q380.71875 27.840626 381.21875 28.028126Q381.71875 28.215626 381.95312 28.496876Q382.1875 28.778126 382.28125 29.215626Q382.32812 29.48125 382.32812 30.184376L382.32812 31.590626Q382.32812 33.059376 382.39062 33.45Q382.46875 33.840626 382.67188 34.2L381.5625 34.2Q381.40625 33.871876 381.35938 33.434376ZM381.26562 31.075Q380.6875 31.309376 379.54688 31.48125Q378.89062 31.575 378.625 31.7Q378.35938 31.809376 378.20312 32.028126Q378.0625 32.246876 378.0625 32.528126Q378.0625 32.95 378.375 33.23125Q378.70312 33.5125 379.3125 33.5125Q379.92188 33.5125 380.39062 33.246876Q380.875 32.98125 381.09375 32.5125Q381.26562 32.153126 381.26562 31.465626L381.26562 31.075ZM386.01562 34.2L383.65625 27.98125L384.76562 27.98125L386.10938 31.7Q386.3125 32.309376 386.5 32.95Q386.64062 32.465626 386.89062 31.778126L388.28125 27.98125L389.35938 27.98125L387.0 34.2L386.01562 34.2ZM393.35938 33.434376Q392.76562 33.934376 392.21875 34.1375Q391.6875 34.340626 391.0625 34.340626Q390.03125 34.340626 389.48438 33.840626Q388.9375 33.340626 388.9375 32.559376Q388.9375 32.10625 389.14062 31.73125Q389.34375 31.340626 389.6875 31.121876Q390.03125 30.8875 390.45312 30.778126Q390.75 30.684376 391.39062 30.60625Q392.65625 30.465626 393.26562 30.246876Q393.26562 30.028126 393.26562 29.98125Q393.26562 29.325 392.96875 29.059376Q392.5625 28.715626 391.76562 28.715626Q391.03125 28.715626 390.67188 28.98125Q390.3125 29.23125 390.14062 29.8875L389.10938 29.746876Q389.25 29.090626 389.57812 28.684376Q389.90625 28.278126 390.51562 28.059376Q391.125 27.840626 391.92188 27.840626Q392.71875 27.840626 393.21875 28.028126Q393.71875 28.215626 393.95312 28.496876Q394.1875 28.778126 394.28125 29.215626Q394.32812 29.48125 394.32812 30.184376L394.32812 31.590626Q394.32812 33.059376 394.39062 33.45Q394.46875 33.840626 394.67188 34.2L393.5625 34.2Q393.40625 33.871876 393.35938 33.434376ZM393.26562 31.075Q392.6875 31.309376 391.54688 31.48125Q390.89062 31.575 390.625 31.7Q390.35938 31.809376 390.20312 32.028126Q390.0625 32.246876 390.0625 32.528126Q390.0625 32.95 390.375 33.23125Q390.70312 33.5125 391.3125 33.5125Q391.92188 33.5125 392.39062 33.246876Q392.875 32.98125 393.09375 32.5125Q393.26562 32.153126 393.26562 31.465626L393.26562 31.075Z" fill-rule="nonzero"/><path fill="#ea4335" d="M411.5 25.2C411.5 24.647715 411.94772 24.2 412.5 24.2L422.5 24.2C423.05228 24.2 423.5 24.647715 423.5 25.2L423.5 35.2C423.5 35.752285 423.05228 36.2 422.5 36.2L412.5 36.2C411.94772 36.2 411.5 35.752285 411.5 35.2Z" fill-rule="nonzero"/><path fill="#1a1a1a" d="M432.04688 31.434376L433.10938 31.340626Q433.1875 31.996876 433.46875 32.403126Q433.75 32.809376 434.32812 33.075Q434.92188 33.325 435.65625 33.325Q436.29688 33.325 436.79688 33.1375Q437.29688 32.934376 437.53125 32.60625Q437.78125 32.2625 437.78125 31.871876Q437.78125 31.465626 437.54688 31.16875Q437.3125 30.85625 436.78125 30.653126Q436.42188 30.5125 435.23438 30.23125Q434.0625 29.95 433.59375 29.7Q432.96875 29.371876 432.67188 28.903126Q432.375 28.41875 432.375 27.825Q432.375 27.184376 432.73438 26.621876Q433.10938 26.04375 433.8125 25.7625Q434.53125 25.465626 435.39062 25.465626Q436.34375 25.465626 437.07812 25.778126Q437.8125 26.075 438.20312 26.684376Q438.59375 27.278126 438.625 28.028126L437.53125 28.10625Q437.4375 27.29375 436.92188 26.8875Q436.42188 26.465626 435.4375 26.465626Q434.40625 26.465626 433.9375 26.840626Q433.46875 27.215626 433.46875 27.746876Q433.46875 28.215626 433.79688 28.5125Q434.125 28.809376 435.5 29.121876Q436.89062 29.434376 437.40625 29.66875Q438.15625 30.028126 438.51562 30.559376Q438.875 31.075 438.875 31.778126Q438.875 32.465626 438.48438 33.075Q438.09375 33.66875 437.35938 34.0125Q436.625 34.340626 435.70312 34.340626Q434.53125 34.340626 433.73438 34.0125Q432.95312 33.66875 432.5 32.98125Q432.0625 32.29375 432.04688 31.434376ZM444.35938 31.91875L445.39062 32.059376Q445.21875 33.121876 444.51562 33.73125Q443.8125 34.340626 442.79688 34.340626Q441.51562 34.340626 440.73438 33.5125Q439.96875 32.66875 439.96875 31.10625Q439.96875 30.10625 440.29688 29.35625Q440.64062 28.590626 441.3125 28.215626Q442.0 27.840626 442.8125 27.840626Q443.8125 27.840626 444.45312 28.35625Q445.10938 28.85625 445.29688 29.809376L444.26562 29.965626Q444.125 29.340626 443.75 29.028126Q443.375 28.7 442.84375 28.7Q442.04688 28.7 441.54688 29.278126Q441.04688 29.840626 441.04688 31.075Q441.04688 32.340626 441.53125 32.903126Q442.01562 33.465626 442.78125 33.465626Q443.40625 33.465626 443.8125 33.090626Q444.23438 32.715626 444.35938 31.91875ZM450.35938 33.434376Q449.76562 33.934376 449.21875 34.1375Q448.6875 34.340626 448.0625 34.340626Q447.03125 34.340626 446.48438 33.840626Q445.9375 33.340626 445.9375 32.559376Q445.9375 32.10625 446.14062 31.73125Q446.34375 31.340626 446.6875 31.121876Q447.03125 30.8875 447.45312 30.778126Q447.75 30.684376 448.39062 30.60625Q449.65625 30.465626 450.26562 30.246876Q450.26562 30.028126 450.26562 29.98125Q450.26562 29.325 449.96875 29.059376Q449.5625 28.715626 448.76562 28.715626Q448.03125 28.715626 447.67188 28.98125Q447.3125 29.23125 447.14062 29.8875L446.10938 29.746876Q446.25 29.090626 446.57812 28.684376Q446.90625 28.278126 447.51562 28.059376Q448.125 27.840626 448.92188 27.840626Q449.71875 27.840626 450.21875 28.028126Q450.71875 28.215626 450.95312 28.496876Q451.1875 28.778126 451.28125 29.215626Q451.32812 29.48125 451.32812 30.184376L451.32812 31.590626Q451.32812 33.059376 451.39062 33.45Q451.46875 33.840626 451.67188 34.2L450.5625 34.2Q450.40625 33.871876 450.35938 33.434376ZM450.26562 31.075Q449.6875 31.309376 448.54688 31.48125Q447.89062 31.575 447.625 31.7Q447.35938 31.809376 447.20312 32.028126Q447.0625 32.246876 447.0625 32.528126Q447.0625 32.95 447.375 33.23125Q447.70312 33.5125 448.3125 33.5125Q448.92188 33.5125 449.39062 33.246876Q449.875 32.98125 450.09375 32.5125Q450.26562 32.153126 450.26562 31.465626L450.26562 31.075ZM453.26562 34.2L453.26562 25.60625L454.32812 25.60625L454.32812 34.2L453.26562 34.2ZM460.35938 33.434376Q459.76562 33.934376 459.21875 34.1375Q458.6875 34.340626 458.0625 34.340626Q457.03125 34.340626 456.48438 33.840626Q455.9375 33.340626 455.9375 32.559376Q455.9375 32.10625 456.14062 31.73125Q456.34375 31.340626 456.6875 31.121876Q457.03125 30.8875 457.45312 30.778126Q457.75 30.684376 458.39062 30.60625Q459.65625 30.465626 460.26562 30.246876Q460.26562 30.028126 460.26562 29.98125Q460.26562 29.325 459.96875 29.059376Q459.5625 28.715626 458.76562 28.715626Q458.03125 28.715626 457.67188 28.98125Q457.3125 29.23125 457.14062 29.8875L456.10938 29.746876Q456.25 29.090626 456.57812 28.684376Q456.90625 28.278126 457.51562 28.059376Q458.125 27.840626 458.92188 27.840626Q459.71875 27.840626 460.21875 28.028126Q460.71875 28.215626 460.95312 28.496876Q461.1875 28.778126 461.28125 29.215626Q461.32812 29.48125 461.32812 30.184376L461.32812 31.590626Q461.32812 33.059376 461.39062 33.45Q461.46875 33.840626 461.67188 34.2L460.5625 34.2Q460.40625 33.871876 460.35938 33.434376ZM460.26562 31.075Q459.6875 31.309376 458.54688 31.48125Q457.89062 31.575 457.625 31.7Q457.35938 31.809376 457.20312 32.028126Q457.0625 32.246876 457.0625 32.528126Q457.0625 32.95 457.375 33.23125Q457.70312 33.5125 458.3125 33.5125Q458.92188 33.5125 459.39062 33.246876Q459.875 32.98125 460.09375 32.5125Q460.26562 32.153126 460.26562 31.465626L460.26562 31.075Z" fill-rule="nonzero"/></svg>